<?xml version="1.0" encoding="utf-8"?>
<!-- Generator: Adobe Illustrator 19.1.0, SVG Export Plug-In . SVG Version: 6.00 Build 0)  -->
<!DOCTYPE svg PUBLIC "-//W3C//DTD SVG 1.1//EN" "http://www.w3.org/Graphics/SVG/1.1/DTD/svg11.dtd">
<svg version="1.1" id="Layer_1" xmlns="http://www.w3.org/2000/svg" xmlns:xlink="http://www.w3.org/1999/xlink" x="0px" y="0px"
	 viewBox="0 0 165.9 162.9" enable-background="new 0 0 165.9 162.9" xml:space="preserve">
<path fill="#6D6D6D" stroke="#000000" stroke-width="4" stroke-miterlimit="10" d="M81.2,46.9c-1.5,1.6-1.9,2.9-1.9,4.6
	c-0.1,3.5,2.4,8.4,2.5,14.2v0.8l-64.1,63.2L7.6,139.8c-1.1,1-1.6,2.4-1.6,3.8c0,1.4,0.5,2.7,1.6,3.8l10.1,10.1
	c1,1.1,2.4,1.6,3.8,1.6c1.4,0,2.7-0.5,3.8-1.6l43.2-42.2l0.2-0.3l30.1-30.7h0.8c5.7,0.1,10.8,2.5,14.6,2.5c1.9,0,3.4-0.5,4.9-2
	l44.1-44.1l-8.8-8.8l-39,39l-5-5l39-39l-10.1-10.1l-39,39l-5-5l39-39l-8.8-8.8L81.2,46.9z"/>
<path fill="#6D6D6D" stroke="#000000" stroke-width="4" stroke-miterlimit="10" d="M21.5,20.6c-8.1-8.1-0.1-0.1-13.8-13.8
	c-3.6,4.2-5.1,9-5.1,14.5C2.5,36.4,15.3,56.1,28.3,71.5c5.7,6.8,11.3,12.7,15.9,17.4L67,66L21.5,20.6z"/>
<path fill="#6D6D6D" stroke="#000000" stroke-width="4" stroke-miterlimit="10" d="M132.4,131.5l-30.2-30.2l-2.6-2.6l-17.5,17.8
	l2.4,2.4l30.2,30.2l10.1,10.1c1,1,2.4,1.6,3.8,1.6c1.4,0,2.7-0.5,3.8-1.6l10.1-10.1c1.1-1,1.6-2.4,1.6-3.8c0-1.4-0.5-2.7-1.6-3.8
	L132.4,131.5z"/>
</svg>
