<?xml version="1.0" encoding="utf-8"?>
<!-- Generator: Adobe Illustrator 19.1.0, SVG Export Plug-In . SVG Version: 6.00 Build 0)  -->
<!DOCTYPE svg PUBLIC "-//W3C//DTD SVG 1.1//EN" "http://www.w3.org/Graphics/SVG/1.1/DTD/svg11.dtd">
<svg version="1.1" id="Layer_1" xmlns="http://www.w3.org/2000/svg" xmlns:xlink="http://www.w3.org/1999/xlink" x="0px" y="0px"
	 viewBox="0 0 189.8 261.3" enable-background="new 0 0 189.8 261.3" xml:space="preserve">
<g>
	<g>
		<rect x="77.8" y="217.9" fill="#736357" width="38" height="38"/>
		<path d="M117.3,257.5h-41v-41h41V257.5z M79.3,254.5h35v-35h-35V254.5z"/>
	</g>
	<g>
		<polygon fill="#006837" points="141.6,146.2 52,146.2 9,217.9 184.7,217.9 		"/>
		<path d="M187.3,219.4H6.3l44.8-74.7h91.3L187.3,219.4z M11.6,216.4H182l-41.2-68.7H52.9L11.6,216.4z"/>
	</g>
	<g>
		<polygon fill="#006837" points="120.5,76.7 73.2,76.7 23,146.2 170.7,146.2 		"/>
		<path d="M173.6,147.7H20l52.4-72.6h48.9L173.6,147.7z M25.9,144.7h141.9l-48-66.6H73.9L25.9,144.7z"/>
	</g>
	<g>
		<polygon fill="#006837" points="97.2,26.1 95.8,26.1 52.8,77 140.3,77 		"/>
		<path d="M143.5,78.5H49.5l45.6-53.9h2.8L143.5,78.5z M56,75.5h81L96.5,27.6h0L56,75.5z"/>
	</g>
	<g>
		<path fill="#FFFFFF" d="M141.1,117.4c5.2,5.2-1.6,14.6,9.1,16.6c11.3,2.2,9.6,16.2,17.4,10.9c5.5-3.7-11.2-26.4-15.7-30.9
			c-4.5-4.5-4.4-4.8-10.4-6c-6-1.2-10.1-4-13.1,0.5C125.9,112.1,139.4,115.7,141.1,117.4z"/>
		<path d="M164.5,147.6c-0.3,0-0.6,0-0.9-0.1c-2.2-0.5-3.5-2.5-4.9-4.7c-1.9-3-4-6.4-8.8-7.3c-7.5-1.5-7.8-6.4-7.9-10.4
			c-0.1-2.5-0.2-4.9-1.9-6.6c-0.4-0.4-2.3-1.2-3.8-1.8c-5.2-2.2-8.9-4-9.6-6.5c-0.3-0.9-0.1-1.8,0.4-2.6c2.9-4.4,6.7-3.3,10.8-2.1
			c1.2,0.3,2.5,0.7,3.9,1c5.8,1.1,6.4,1.6,10.1,5.4l1.1,1.1c3.5,3.5,18,22.3,17.2,30.1c-0.2,1.7-1,2.7-1.7,3.1
			C167,147.2,165.7,147.6,164.5,147.6z M142.1,116.4c2.5,2.5,2.7,5.8,2.8,8.6c0.2,4,0.3,6.6,5.5,7.6c6.1,1.2,8.8,5.5,10.8,8.6
			c1.1,1.7,2,3.2,3,3.4c0.6,0.1,1.4-0.2,2.5-0.9c0.1-0.1,0.3-0.2,0.4-0.9c0.6-5.9-12.3-23.6-16.4-27.7l-1.1-1.1
			c-3.3-3.4-3.5-3.5-8.5-4.5c-1.5-0.3-2.9-0.7-4.1-1c-4.1-1.2-5.8-1.5-7.5,0.9c0.2,1.3,5.8,3.7,7.9,4.6
			C140,115,141.4,115.7,142.1,116.4L142.1,116.4z"/>
	</g>
	<g>
		<path fill="#FFFFFF" d="M100.5,57.5c10.2,2,18.4,7.3,25.5,2.5c5-3.3-10.9-17.4-15-21.6c-4.1-4.1-10.8-13.7-16.4-13.7
			c-6.4,0-13.2,19.1-9.7,17.5C94.1,38.2,90.7,55.6,100.5,57.5z"/>
		<path d="M119.4,63.5c-3.5,0-7.2-1.1-11-2.3c-2.6-0.8-5.3-1.6-8.2-2.2l0,0c-5.5-1.1-7.4-6.2-8.9-10.2c-0.9-2.5-1.8-4.8-3.1-5.4
			c-0.7-0.3-1.6-0.2-2.7,0.4c-0.8,0.4-1.7,0.3-2.3-0.3c-1.2-1.2-0.9-4,1-8.6c0.8-1.9,4.9-11.5,10.5-11.5c5,0,10.2,5.9,14.3,10.7
			c1.2,1.3,2.2,2.6,3.2,3.5c0.5,0.5,1.2,1.2,2,1.9c7.5,7.2,14.8,14.6,14.4,19.2c-0.1,1.1-0.7,2.1-1.6,2.7
			C124.4,62.9,121.9,63.5,119.4,63.5z M100.7,56.1c3,0.6,5.8,1.4,8.5,2.3c6.4,1.9,11.4,3.5,15.8,0.5c0.2-0.1,0.3-0.3,0.3-0.5
			c0.3-3.5-9.7-13.2-13.5-16.8c-0.8-0.8-1.5-1.4-2-2c-1-1-2.1-2.3-3.3-3.6c-3.6-4.1-8.5-9.6-12.1-9.6c-1.1,0-2.5,1-3.9,2.9
			c-2.8,3.7-4.8,9-5.1,11.3c1.4-0.4,2.7-0.4,3.9,0.1c2.5,1.1,3.6,4,4.8,7.1C95.5,51.4,96.9,55.3,100.7,56.1L100.7,56.1z"/>
	</g>
	<g>
		<path fill="#FFFFFF" d="M62.7,102.5c-5,5,2.5,11-7.8,13c-10.8,2.1-7.4,10.4-14.9,5.4c-5.3-3.5,6.3-17.8,10.7-22.2
			c4.4-4.4,6.5-8.2,12.3-9.4c5.8-1.2,1.9,0.2,4.8,4.5C70.1,97.3,64.3,100.9,62.7,102.5z"/>
		<path d="M43.8,124c-1.2,0-2.6-0.5-4.6-1.8c-1.1-0.8-1.8-2-2-3.4c-0.6-6.5,9.7-18.3,12.5-21c1-1,1.8-1.9,2.6-2.8
			c2.9-3.2,5.4-6,10.4-7c2.4-0.5,3.6-0.7,4.5,0C68,88.6,68,89.4,68,90c0,0.7,0.1,1.7,1,3.1c2.6,3.9-1.8,7.6-4.1,9.5
			c-0.5,0.4-0.9,0.7-1.1,1h0c-1.6,1.6-1.5,3.3-1.5,5.2c0.1,3,0.2,6.7-7.1,8.2c-4.5,0.9-6.2,2.9-7.5,4.5
			C46.5,122.9,45.4,124,43.8,124z M65,90.6c-0.6,0.1-1.4,0.2-1.7,0.3c-4,0.8-6,3-8.8,6c-0.8,0.9-1.7,1.9-2.7,2.9
			c-4.4,4.4-12,14.4-11.6,18.6c0.1,0.7,0.4,1.1,0.7,1.2c2.9,1.9,3.1,1.7,4.5-0.1c1.5-1.8,3.7-4.5,9.3-5.6c4.8-0.9,4.7-2.3,4.6-5.1
			c-0.1-2.2-0.2-4.9,2.3-7.5c0.3-0.3,0.8-0.7,1.3-1.2c2.4-2,4.6-4,3.6-5.6C65.3,92.9,65.1,91.5,65,90.6z"/>
	</g>
	<g>
		<path fill="#FFFFFF" d="M31.4,200.2c-5.5,5.5-0.6,8.7-11.8,10.9c-11.8,2.3-4.8,14.8-13,9.2c-5.8-3.9,6.9-19.5,11.7-24.3
			c4.8-4.8,7.1-13.2,13.4-14.4c6.4-1.3,5.9,0.5,9.1,5.3C43.4,190.6,33.2,198.4,31.4,200.2z"/>
		<path d="M9.8,223.2c-1.3,0-2.7-0.8-4-1.6c-1.2-0.8-1.9-2.1-2.1-3.7C3,210.8,14.2,198,17.3,195c1.6-1.6,2.9-3.7,4.3-5.8
			c2.6-4,5.2-8.2,9.9-9.1c6-1.2,7.2,0.3,9.3,3.7c0.4,0.6,0.8,1.3,1.3,2.1c2.6,3.9-2.9,9.3-8.3,14c-0.6,0.5-1.1,0.9-1.3,1.2
			c-1.8,1.8-2.3,3.2-2.8,4.6c-1.1,3.2-2.4,5.2-9.8,6.7c-5.2,1-6,4.1-6.8,6.8c-0.4,1.6-0.8,3.2-2.4,3.7
			C10.4,223.1,10.1,223.2,9.8,223.2z M35,182.6c-0.7,0-1.6,0.2-2.9,0.4c-3.5,0.7-5.7,4.1-8,7.8c-1.4,2.2-2.8,4.4-4.7,6.3
			c-4.5,4.5-13.2,15.6-12.7,20.5c0.1,0.9,0.5,1.2,0.8,1.5c1.4,0.9,2,1.1,2.2,1.1c0.2-0.3,0.4-1.1,0.6-1.7c0.8-2.8,2-7.6,9.1-8.9
			c6.3-1.2,6.8-2.6,7.6-4.8c0.6-1.5,1.2-3.5,3.5-5.7l0,0c0.3-0.3,0.8-0.8,1.5-1.3c7.6-6.7,8.4-9.2,7.8-10.1c-0.6-0.8-1-1.6-1.4-2.3
			C37,183.4,36.6,182.6,35,182.6z"/>
	</g>
	<g>
		<path fill="#FFFFFF" d="M136.1,200.2c10.1,0.4,8.4-7.1,20.9,1.8c13.1,9.3,17.9-8.4,20.5,4.3c1.9,8.9-24.2,10.5-33,10.2
			c-8.8-0.4-18.6,4.8-25.7-0.2c-7.1-5-5.1-6.1-3.7-13.4C116.2,197.2,132.8,200,136.1,200.2z"/>
		<path d="M126.6,219.9c-3,0-5.9-0.6-8.6-2.5c-6.4-4.5-6.2-6.7-5-11.7c0.2-0.9,0.5-2,0.7-3.2c1.2-6.2,13.5-4.8,20.1-4.1
			c1,0.1,1.9,0.2,2.4,0.2h0c3.3,0.2,5.2-0.7,7-1.4c3.8-1.7,6.6-2.4,14.8,3.5c6,4.3,9.9,2.2,12.9,0.6c1.8-1,3.4-1.8,5.1-1.1
			c1.4,0.7,2.4,2.4,3,5.7c0.4,1.8-0.1,3.5-1.3,4.9c-5.7,6.8-27.7,7.2-33.2,7c-3-0.1-6.2,0.4-9.3,1
			C132.3,219.4,129.4,219.9,126.6,219.9z M124.4,200.9c-4.9,0-7.5,0.8-7.8,2.3c-0.2,1.3-0.5,2.4-0.7,3.3c-1,4.2-1.2,5,3.8,8.5
			c4,2.9,9.3,1.9,14.9,0.9c3.3-0.6,6.7-1.2,10-1c8.4,0.4,26.6-1.1,30.8-6c0.6-0.8,0.9-1.5,0.7-2.4c-0.7-3.2-1.3-3.6-1.4-3.6
			c-0.3-0.1-1.6,0.5-2.4,1c-3.2,1.7-8.5,4.6-16.1-0.8c-7.2-5.2-9-4.4-11.9-3.2c-1.9,0.8-4.2,1.8-8.3,1.7c-0.6,0-1.4-0.1-2.6-0.2
			C129.9,201.1,126.9,200.9,124.4,200.9z"/>
	</g>
	<g>
		<path fill="#FFFFFF" d="M82.1,136.8c7,0.7,7-8.9,15-2.1c8.4,7.1,12.8-0.8,13.5,8.2c0.6,6.3-17.8,6.2-24,5.6
			c-6.1-0.7-10.4,0.1-15-3.7c-4.5-3.8-1-1.6,0.5-6.5C73.5,134.4,79.9,136.6,82.1,136.8z"/>
		<path d="M93.2,150.3c-2.9,0-5.4-0.2-6.6-0.3c-1.3-0.1-2.6-0.2-3.8-0.3c-4.3-0.2-8.1-0.5-12-3.7c-1.9-1.6-2.8-2.4-2.8-3.5
			c0-1,0.6-1.5,1.1-1.9c0.5-0.5,1.2-1.1,1.8-2.7c1.4-4.5,7-3.4,10-2.8c0.6,0.1,1.1,0.2,1.5,0.3l0,0c2.3,0.2,3.5-0.9,5-2.1
			c2.3-2,5.1-4.4,10.8,0.4c3.5,3,6.2,3,8.3,3c3.1,0,5.3,0.5,5.8,6.2c0.1,1.4-0.4,2.7-1.4,3.7C107.6,149.6,99.3,150.3,93.2,150.3z
			 M71.3,142.5c0.4,0.4,1.1,0.9,1.3,1.2c3.1,2.6,6.1,2.8,10.2,3c1.3,0.1,2.6,0.1,4,0.3c6.2,0.7,18.7,0.3,21.8-2.7
			c0.5-0.5,0.6-1,0.5-1.3c-0.3-3.4-0.6-3.4-2.9-3.5c-2.3,0-5.8-0.1-10.2-3.7c-3.7-3.1-4.8-2.2-6.9-0.4c-1.7,1.4-3.7,3.2-7.3,2.9
			c-0.5-0.1-1.1-0.2-1.7-0.3c-3-0.6-6-1-6.6,0.7C73,140.8,72,141.9,71.3,142.5z"/>
	</g>
	<g>
		<path fill="#FFFFFF" d="M71.9,69.7c-5.1,4.9-2.4,8.3-13.3,9.2c-11.4,0.9-3.1-8.9,1.4-13.2c4.4-4.3,6.6-8.1,12.4-9.1
			c5.8-1,1.9,0.2,4.7,4.6C79.4,64.6,73.6,68.1,71.9,69.7z"/>
		<path d="M57.2,80.4c-1.9,0-4.5-0.4-5.4-2.5c-1.8-4,4.5-10.7,7.2-13.3c1-0.9,1.8-1.9,2.7-2.8c3-3.2,5.5-5.9,10.5-6.8
			c2.4-0.4,3.6-0.6,4.5,0.1c0.7,0.6,0.8,1.5,0.8,2.1c0,0.7,0,1.7,1,3.1c2.5,4-1.9,7.5-4.3,9.5c-0.5,0.4-0.9,0.7-1.1,1l0,0
			c-1.4,1.4-2.2,2.6-2.9,3.8c-1.9,3.2-3.5,5.2-11.3,5.8C58.4,80.4,57.8,80.4,57.2,80.4z M74.5,57.7c-0.6,0.1-1.4,0.2-1.7,0.3
			c-4,0.7-6.1,2.9-8.9,5.9c-0.9,0.9-1.8,1.9-2.8,2.9c-4.8,4.7-7.1,8.7-6.6,10c0.2,0.5,1.4,0.9,4,0.7c6.7-0.6,7.5-1.9,8.9-4.4
			c0.7-1.2,1.7-2.8,3.4-4.4v0c0.4-0.3,0.8-0.7,1.4-1.1c2.4-1.9,4.7-3.9,3.7-5.5C74.7,60.1,74.5,58.7,74.5,57.7z"/>
	</g>
</g>
<g>
	<circle fill="#ED1E79" cx="103" cy="112.6" r="12.9"/>
	<path d="M103,127c-7.9,0-14.4-6.4-14.4-14.4c0-7.9,6.4-14.4,14.4-14.4s14.4,6.4,14.4,14.4C117.3,120.6,110.9,127,103,127z
		 M103,101.3c-6.3,0-11.4,5.1-11.4,11.4S96.7,124,103,124s11.4-5.1,11.4-11.4S109.2,101.3,103,101.3z"/>
</g>
<g>
	<circle fill="#F15A24" cx="54" cy="153.6" r="12.9"/>
	<path d="M54,168c-7.9,0-14.4-6.4-14.4-14.4c0-7.9,6.4-14.4,14.4-14.4c7.9,0,14.4,6.4,14.4,14.4C68.3,161.6,61.9,168,54,168z
		 M54,142.3c-6.3,0-11.4,5.1-11.4,11.4S47.7,165,54,165s11.4-5.1,11.4-11.4S60.2,142.3,54,142.3z"/>
</g>
<g>
	<circle fill="#D9E021" cx="140" cy="161.6" r="12.9"/>
	<path d="M140,176c-7.9,0-14.4-6.4-14.4-14.4c0-7.9,6.4-14.4,14.4-14.4s14.4,6.4,14.4,14.4C154.3,169.6,147.9,176,140,176z
		 M140,150.3c-6.3,0-11.4,5.1-11.4,11.4S133.7,173,140,173s11.4-5.1,11.4-11.4S146.2,150.3,140,150.3z"/>
</g>
<g>
	<circle fill="#00A99D" cx="69" cy="201.6" r="12.9"/>
	<path d="M69,216c-7.9,0-14.4-6.4-14.4-14.4S61,187.3,69,187.3s14.4,6.4,14.4,14.4S76.9,216,69,216z M69,190.3
		c-6.3,0-11.4,5.1-11.4,11.4S62.7,213,69,213c6.3,0,11.4-5.1,11.4-11.4S75.2,190.3,69,190.3z"/>
</g>
<g>
	<circle fill="#BDCCD4" cx="97" cy="17.6" r="12.9"/>
	<path d="M97,32c-7.9,0-14.4-6.4-14.4-14.4C82.6,9.7,89,3.3,97,3.3s14.4,6.4,14.4,14.4C111.3,25.6,104.9,32,97,32z M97,6.3
		c-6.3,0-11.4,5.1-11.4,11.4S90.7,29,97,29s11.4-5.1,11.4-11.4S103.2,6.3,97,6.3z"/>
</g>
</svg>
