<?xml version="1.0" encoding="utf-8"?>
<!-- Generator: Adobe Illustrator 19.1.0, SVG Export Plug-In . SVG Version: 6.00 Build 0)  -->
<!DOCTYPE svg PUBLIC "-//W3C//DTD SVG 1.1//EN" "http://www.w3.org/Graphics/SVG/1.1/DTD/svg11.dtd">
<svg version="1.1" id="Layer_1" xmlns="http://www.w3.org/2000/svg" xmlns:xlink="http://www.w3.org/1999/xlink" x="0px" y="0px"
	 viewBox="0 0 369.2 167.5" enable-background="new 0 0 369.2 167.5" xml:space="preserve">
<g>
	<g>
		<path fill="#534741" d="M323.8,2.5H201.5c-6.8,0-12.9,3.1-16.9,7.9c-4.1-4.8-10.1-7.9-16.9-7.9H45.4c-12.2,0-22.1,10-22.1,22.1
			v111.8c0,12.2,10,22.1,22.1,22.1h122.2c6.8,0,12.9-3.1,16.9-7.9c4.1,4.8,10.1,7.9,16.9,7.9h122.2c12.2,0,22.1-10,22.1-22.1V24.6
			C345.9,12.5,335.9,2.5,323.8,2.5z"/>
		<path d="M323.8,161.1H201.5c-6.3,0-12.4-2.4-16.9-6.8c-4.6,4.3-10.6,6.8-16.9,6.8H45.4c-13.6,0-24.6-11-24.6-24.6V24.6
			C20.8,11,31.9,0,45.4,0h122.2c6.3,0,12.4,2.4,16.9,6.8c4.6-4.3,10.6-6.8,16.9-6.8h122.2c13.6,0,24.6,11,24.6,24.6v111.8
			C348.4,150,337.3,161.1,323.8,161.1z M184.6,146.8l1.9,2.3c3.8,4.5,9.2,7,15,7h122.2c10.8,0,19.6-8.8,19.6-19.6V24.6
			c0-10.8-8.8-19.6-19.6-19.6H201.5c-5.8,0-11.2,2.6-15,7l-1.9,2.3l-1.9-2.3c-3.8-4.5-9.2-7-15-7H45.4c-10.8,0-19.6,8.8-19.6,19.6
			v111.8c0,10.8,8.8,19.6,19.6,19.6h122.2c5.8,0,11.2-2.6,15-7L184.6,146.8z"/>
	</g>
	<g>
		<path fill="#534741" d="M2.5,165V55.7c0-11.4,9.4-20.8,20.8-20.8h0c11.4,0,20.8,9.4,20.8,20.8V165H2.5z"/>
		<path d="M46.6,167.5H0V55.7c0-12.9,10.5-23.3,23.3-23.3s23.3,10.5,23.3,23.3V167.5z M5,162.5h36.6V55.7c0-10.1-8.2-18.3-18.3-18.3
			S5,45.6,5,55.7V162.5z"/>
	</g>
	<g>
		<path fill="#534741" d="M325.1,165V55.7c0-11.4,9.4-20.8,20.8-20.8h0c11.4,0,20.8,9.4,20.8,20.8V165H325.1z"/>
		<path d="M369.2,167.5h-46.6V55.7c0-12.9,10.5-23.3,23.3-23.3s23.3,10.5,23.3,23.3V167.5z M327.6,162.5h36.6V55.7
			c0-10.1-8.2-18.3-18.3-18.3s-18.3,8.2-18.3,18.3V162.5z"/>
	</g>
	<g>
		<rect x="44.1" y="94.3" fill="#534741" width="280.9" height="69.9"/>
		<path d="M327.6,166.6H41.6V91.8h285.9V166.6z M46.6,161.6h275.9V96.8H46.6V161.6z"/>
	</g>
</g>
<rect x="183.2" y="10.4" width="3" height="84"/>
</svg>
