<?xml version="1.0" encoding="utf-8"?>
<!-- Generator: Adobe Illustrator 19.1.0, SVG Export Plug-In . SVG Version: 6.00 Build 0)  -->
<!DOCTYPE svg PUBLIC "-//W3C//DTD SVG 1.1//EN" "http://www.w3.org/Graphics/SVG/1.1/DTD/svg11.dtd">
<svg version="1.1" id="Layer_1" xmlns="http://www.w3.org/2000/svg" xmlns:xlink="http://www.w3.org/1999/xlink" x="0px" y="0px"
	 viewBox="0 0 448.9 169.8" enable-background="new 0 0 448.9 169.8" xml:space="preserve">
<g opacity="0.4">
	
		<image overflow="visible" width="119" height="76" xlink:href="2F30595E660961E5.png"  transform="matrix(1 0 0 1 352.1429 126.0659)">
	</image>
</g>
<g opacity="0.4">
	
		<image overflow="visible" width="130" height="76" xlink:href="2F30595E660961E7.png"  transform="matrix(1 0 0 1 218.2917 117.0587)">
	</image>
</g>
<g>
	<path fill="#9D8577" stroke="#000000" stroke-width="2" d="M297.1,155c0,0,13.4-15.5,13.4-46.4c0-46.4-26.8-77.3-26.8-77.3
		S257,62.2,257,108.6c0,30.9,13.4,46.4,13.4,46.4H297.1z"/>
	<path fill="#FDD4BC" stroke="#231F20" d="M319,94.9c-1.8-4.7,0.1-9.7,4.3-11.3c4.1-1.6,9,0.9,10.7,5.5c1.8,4.7-0.1,9.7-4.3,11.3
		C325.6,102,320.8,99.6,319,94.9z"/>
	<path fill="#FDD4BC" stroke="#231F20" d="M234.2,88.9c2-4.6,7-6.8,11-5c4.1,1.8,5.7,7,3.7,11.5c-2,4.6-7,6.8-11,5
		C233.9,98.6,232.2,93.5,234.2,88.9z"/>
	<path fill="#1B1464" stroke="#000000" stroke-width="2" d="M251.9,94l-10.4-14.2c0,0,20.9-29.9,41.8-29.9
		c20.9,0,41.8,29.9,41.8,29.9L314.6,94c0,0-20.9-32.6-31.3-32.6C272.8,61.4,251.9,94,251.9,94z"/>
	<path fill="#1B1464" stroke="#000000" stroke-width="2" d="M310.5,108.6c0-46.4-26.8-77.3-26.8-77.3S257,62.2,257,108.6"/>
	<line fill="none" stroke="#000000" x1="257" y1="108.6" x2="310.5" y2="108.6"/>
	<path fill="#FDD4BC" stroke="#000000" stroke-width="2" d="M309.3,27c0.9,13.1-10.1,24.5-24.7,25.5c-14.6,1-27.1-8.8-28-21.9
		c-0.9-13.1,10.2-24.5,24.7-25.5C295.9,4.1,308.4,13.9,309.3,27z"/>
	<path fill="#231F20" d="M277.6,28.7c0,1-0.8,1.7-1.7,1.7c-0.9,0-1.7-0.8-1.7-1.7c0-0.9,0.8-1.7,1.7-1.7
		C276.8,27,277.6,27.8,277.6,28.7z"/>
	<path fill="#231F20" d="M293.5,28.7c0,1-0.8,1.7-1.7,1.7c-1,0-1.7-0.8-1.7-1.7c0-0.9,0.8-1.7,1.7-1.7
		C292.7,27,293.5,27.8,293.5,28.7z"/>
	<path fill="#351505" d="M307.6,20c-10.9,0-8.3-6.7-12.5-8.3c-3.9-1.5-7,2.1-11.4,2.1s-8.2-3.5-13.1-1.7c-5,1.8-5,8.8-12.4,8.8
		c0,0,3.1-7.4,8.2-10.4s14.2-6.1,15.1-6.1c0.9,0,13.7,2.9,16,4.4c2.4,1.6,7.1,5.5,8.4,8C307.3,19.3,307.6,20,307.6,20z"/>
	<ellipse fill="none" stroke="#666666" stroke-width="2" cx="274.7" cy="28.6" rx="5.9" ry="4.7"/>
	<ellipse fill="none" stroke="#666666" stroke-width="2" cx="292.8" cy="28.6" rx="5.9" ry="4.7"/>
	<line fill="none" stroke="#666666" stroke-width="2" x1="256.5" y1="28.6" x2="268.8" y2="28.6"/>
	<line fill="none" stroke="#666666" stroke-width="2" x1="279.8" y1="26.3" x2="287.9" y2="26.3"/>
	<line fill="none" stroke="#666666" stroke-width="2" x1="297.6" y1="28.6" x2="309.4" y2="28.6"/>
	<path display="none" fill="none" stroke="#000000" d="M268.9,39.7c0,0,0,9.6,14.4,9.6c14.4,0,14.4-9.6,14.4-9.6"/>
	<path fill="none" stroke="#000000" stroke-width="2" d="M309.3,27c0.9,13.1-10.1,24.5-24.7,25.5c-14.6,1-27.1-8.8-28-21.9
		c-0.9-13.1,10.2-24.5,24.7-25.5C295.9,4.1,308.4,13.9,309.3,27z"/>
</g>
<g opacity="0.4">
	
		<image overflow="visible" width="129" height="76" xlink:href="2F30595E660961E2.png"  transform="matrix(1 0 0 1 74.4969 116.4346)">
	</image>
</g>
<g>
	<g>
		<g>
			<path fill="#FDD4BC" stroke="#231F20" d="M174.5,92.9c-1.8-4.7,0.1-9.8,4.3-11.4c4.2-1.6,9,0.9,10.8,5.6
				c1.8,4.7-0.1,9.8-4.3,11.4C181.1,100.1,176.3,97.6,174.5,92.9z"/>
			<path fill="#FDD4BC" stroke="#231F20" d="M88.9,86.9c2-4.6,7-6.9,11.1-5c4.1,1.8,5.8,7,3.7,11.6c-2,4.6-7,6.8-11.1,5
				C88.6,96.7,86.9,91.5,88.9,86.9z"/>
			<path fill="#C1272D" stroke="#231F20" stroke-width="2" d="M106.8,92.1L96.2,77.7c0,0,21.1-30.1,42.1-30.1
				c21.1,0,42.1,30.1,42.1,30.1L170,92.1c0,0-21.1-32.9-31.6-32.9C127.8,59.2,106.8,92.1,106.8,92.1z"/>
			<path fill="#6686AC" stroke="#000000" stroke-width="2" d="M151.9,154.6c0,0,13.5-15.6,13.5-46.9c0-46.9-27.1-78.2-27.1-78.2
				s-27.1,31.3-27.1,78.2c0,31.3,13.5,46.9,13.5,46.9H151.9z"/>
			<path fill="#C1272D" stroke="#231F20" d="M165.5,107.6c0-46.9-27.1-78.2-27.1-78.2s-27.1,31.3-27.1,78.2"/>
			<line fill="none" stroke="#231F20" x1="111.3" y1="107.6" x2="165.5" y2="107.6"/>
			<path fill="#FDD4BC" stroke="#000000" stroke-width="2" d="M164.3,25.1c0.9,13.3-10.3,24.8-25,25.9c-14.7,1-27.4-8.9-28.4-22.1
				c-0.9-13.3,10.3-24.8,25-25.9C150.7,1.9,163.4,11.8,164.3,25.1z"/>
			<path fill="#754C24" d="M164.1,23.7c-8.2,0-11.3-9.6-11.3-9.6s-6.4,3.8-14.4,3.8s-16.5-2.7-16.5-2.7s-6.6,11.2-11,11.2
				c0,0,4.1-14.4,10.1-17.9c6-3.5,10.2-5.3,16.9-5.6c6.7-0.3,15.9,3.9,18.7,6.9c2.8,3,5.9,7.3,6.6,9.8S164.1,23.7,164.1,23.7z"/>
			<path fill="#231F20" d="M133.2,26.8c0,1-0.8,1.7-1.7,1.7c-1,0-1.7-0.8-1.7-1.7c0-1,0.8-1.7,1.7-1.7
				C132.4,25.1,133.2,25.8,133.2,26.8z"/>
			<path fill="#231F20" d="M147.1,26.8c0,1-0.8,1.7-1.7,1.7c-1,0-1.7-0.8-1.7-1.7c0-1,0.8-1.7,1.7-1.7
				C146.3,25.1,147.1,25.8,147.1,26.8z"/>
			<path fill="none" stroke="#231F20" stroke-width="2" d="M164.3,25.1c0.9,13.3-10.3,24.8-25,25.9c-14.7,1-27.4-8.9-28.4-22.1
				c-0.9-13.3,10.3-24.8,25-25.9C150.7,1.9,163.4,11.8,164.3,25.1z"/>
		</g>
	</g>
</g>
<g opacity="0.4">
	
		<image overflow="visible" width="129" height="77" xlink:href="2F30595E660961E3.png"  transform="matrix(1 0 0 1 295.1429 124.0334)">
	</image>
</g>
<g>
	<g>
		<g>
			<path fill="#FDD4BC" stroke="#231F20" d="M396.6,100.3c-1.8-4.7,0.1-9.8,4.3-11.4c4.2-1.6,9,0.9,10.8,5.6
				c1.8,4.7-0.1,9.8-4.3,11.4C403.3,107.5,398.4,105,396.6,100.3z"/>
			<path fill="#FDD4BC" stroke="#231F20" d="M311,94.2c2-4.6,7-6.9,11.1-5c4.1,1.8,5.8,7,3.7,11.6c-2,4.6-7,6.8-11.1,5
				C310.7,104,309,98.8,311,94.2z"/>
			<path fill="#00A99D" stroke="#231F20" stroke-width="2" d="M328.9,99.4l-10.5-14.3c0,0,21.1-30.1,42.1-30.1
				c21.1,0,42.1,30.1,42.1,30.1l-10.5,14.3c0,0-21.1-32.9-31.6-32.9C350,66.5,328.9,99.4,328.9,99.4z"/>
			<path fill="#D9E021" stroke="#231F20" stroke-width="2" d="M374.1,161.9c0,0,13.5-15.6,13.5-46.9c0-46.9-27.1-78.2-27.1-78.2
				s-27.1,31.3-27.1,78.2c0,31.3,13.5,46.9,13.5,46.9H374.1z"/>
			<path fill="#00A99D" stroke="#231F20" d="M387.6,115c0-46.9-27.1-78.2-27.1-78.2s-27.1,31.3-27.1,78.2"/>
			<line fill="none" stroke="#231F20" x1="333.4" y1="115" x2="387.6" y2="115"/>
			<path fill="#754C24" stroke="#231F20" stroke-width="3" d="M375.5,30.5c-3-3.5-5.3-8.8-4.5-11.4c-4.6,4.6-5.5,2.1-13,2.6
				c-30.3,2.1-10.7,35.5-10.7,35.5l-2.9,12l-9.2-2.7c-0.5-3.3-2.4-28.7-2.4-33.7c0,0,2.7-22.8,26.9-22.8c24.8,0,26.3,20.9,26.3,20.9
				l-2.4,33.1l-4.3,4l-7.4-1.4C371.8,66.7,376.4,44.2,375.5,30.5"/>
			<path fill="#FDD4BC" stroke="#000000" stroke-width="2" d="M386.4,32.4c0.9,13.3-10.3,24.8-25,25.9c-14.7,1-27.4-8.9-28.4-22.1
				c-0.9-13.3,10.3-24.8,25-25.9C372.8,9.2,385.5,19.1,386.4,32.4z"/>
			<path display="none" fill="#754C24" d="M386.2,31c-8.2,0-11.3-9.6-11.3-9.6s-6.4,3.8-14.4,3.8c-8,0-16.5-2.7-16.5-2.7
				s-6.6,11.2-11,11.2c0,0,4.1-14.4,10.1-17.9c6-3.5,10.2-5.3,16.9-5.6c6.7-0.3,15.9,3.9,18.7,6.9c2.8,3,5.9,7.3,6.6,9.8
				S386.2,31,386.2,31z"/>
			<path fill="#231F20" d="M355.3,34.1c0,1-0.8,1.7-1.7,1.7c-1,0-1.7-0.8-1.7-1.7c0-1,0.8-1.7,1.7-1.7
				C354.5,32.4,355.3,33.2,355.3,34.1z"/>
			<path fill="#231F20" d="M369.2,34.1c0,1-0.8,1.7-1.7,1.7c-1,0-1.7-0.8-1.7-1.7c0-1,0.8-1.7,1.7-1.7
				C368.4,32.4,369.2,33.2,369.2,34.1z"/>
			<path fill="none" stroke="#231F20" stroke-width="2" d="M386.4,32.4c0.9,13.3-10.3,24.8-25,25.9c-14.7,1-27.4-8.9-28.4-22.1
				c-0.9-13.3,10.3-24.8,25-25.9C372.8,9.2,385.5,19.1,386.4,32.4z"/>
			<path fill="#754C24" d="M375.5,30.5c-3-3.5-5.3-8.8-4.5-11.4c-4.6,4.6-5.5,2.1-13,2.6c-30.3,2.1-10.7,35.5-10.7,35.5l-2.9,12
				l-9.2-2.7c-0.5-3.3-2.4-28.7-2.4-33.7c0,0,2.7-22.8,26.9-22.8c24.8,0,26.3,20.9,26.3,20.9l-2.4,33.1l-4.3,4l-7.4-1.4
				C371.8,66.7,376.4,44.2,375.5,30.5"/>
		</g>
	</g>
</g>
<g opacity="0.4">
	
		<image overflow="visible" width="129" height="77" xlink:href="2F30595E660961ED.png"  transform="matrix(1 0 0 1 -9.2172 121.7738)">
	</image>
</g>
<g>
	<g>
		<g>
			<path fill="#FDD4BC" stroke="#231F20" d="M88.7,99.1c-1.8-4.7,0.1-9.8,4.3-11.4c4.2-1.6,9,0.9,10.8,5.6c1.8,4.7-0.1,9.8-4.3,11.4
				C95.4,106.3,90.6,103.8,88.7,99.1z"/>
			<path fill="#FDD4BC" stroke="#231F20" d="M3.2,93c2-4.6,7-6.9,11.1-5c4.1,1.8,5.8,7,3.7,11.6c-2,4.6-7,6.8-11.1,5
				C2.8,102.8,1.2,97.6,3.2,93z"/>
			<path fill="#666666" stroke="#231F20" stroke-width="2" d="M21,98.2L10.5,83.9c0,0,21.1-30.1,42.1-30.1
				c21.1,0,42.1,30.1,42.1,30.1L84.2,98.2c0,0-21.1-32.9-31.6-32.9C42.1,65.3,21,98.2,21,98.2z"/>
			<path fill="#4F4F4F" stroke="#231F20" stroke-width="2" d="M66.2,160.7c0,0,13.5-15.6,13.5-46.9c0-46.9-27.1-78.2-27.1-78.2
				s-27.1,31.3-27.1,78.2c0,31.3,13.5,46.9,13.5,46.9H66.2z"/>
			<path fill="#666666" stroke="#231F20" d="M79.7,113.8c0-46.9-27.1-78.2-27.1-78.2s-27.1,31.3-27.1,78.2"/>
			<line fill="none" stroke="#231F20" x1="25.6" y1="113.8" x2="79.7" y2="113.8"/>
			<polygon fill="#FFFFFF" points="39.7,54.7 52.1,79.6 65.1,54.9 			"/>
			<path fill="#FDD4BC" stroke="#000000" stroke-width="2" d="M78.5,31.2C79.5,44.4,68.3,56,53.5,57c-14.7,1-27.4-8.9-28.4-22.1
				c-0.9-13.3,10.3-24.8,25-25.9C64.9,8,77.6,17.9,78.5,31.2z"/>
			<g>
				<polyline fill="none" stroke="#231F20" points="40.2,55.1 45.6,62.4 51,56.6 				"/>
				<polyline fill="none" stroke="#231F20" points="63.5,55.2 58.1,62.6 52.7,56.7 				"/>
				<polygon fill="none" stroke="#231F20" points="39.7,54.7 52.6,79.9 42.3,71.2 42.5,67.7 39.7,67.5 				"/>
				<polygon fill="none" stroke="#231F20" points="65.1,54.4 52.1,79.6 62.5,70.9 62.2,67.5 65,67.2 				"/>
			</g>
			<path fill="#231F20" d="M47.5,32.9c0,1-0.8,1.7-1.7,1.7c-1,0-1.7-0.8-1.7-1.7c0-1,0.8-1.7,1.7-1.7C46.7,31.2,47.5,32,47.5,32.9z"
				/>
			<path fill="#231F20" d="M61.4,32.9c0,1-0.8,1.7-1.7,1.7c-1,0-1.7-0.8-1.7-1.7c0-1,0.8-1.7,1.7-1.7C60.6,31.2,61.4,32,61.4,32.9z"
				/>
			<polygon fill="#231F20" points="52.3,61.6 50.4,74.8 52.1,79.6 54.2,74.8 			"/>
			<line fill="none" stroke="#231F20" x1="52.1" y1="79.6" x2="52.1" y2="113.8"/>
			<polygon fill="#231F20" points="49.2,57.7 55.4,57.7 52.3,64 			"/>
			<path fill="none" stroke="#231F20" stroke-width="2" d="M78.5,31.2C79.5,44.4,68.3,56,53.5,57c-14.7,1-27.4-8.9-28.4-22.1
				c-0.9-13.3,10.3-24.8,25-25.9C64.9,8,77.6,17.9,78.5,31.2z"/>
		</g>
	</g>
</g>
<g>
	<g>
		<g>
			<path fill="#FDD4BC" stroke="#231F20" d="M435.5,129.9c-1.2-2.6,0.1-5.4,2.8-6.3c2.7-0.9,5.9,0.5,7.1,3.1
				c1.2,2.6-0.1,5.4-2.8,6.3C439.8,133.9,436.6,132.5,435.5,129.9z"/>
			<path fill="#FDD4BC" stroke="#231F20" d="M379.6,126.6c1.3-2.5,4.6-3.8,7.3-2.8c2.7,1,3.8,3.9,2.4,6.4c-1.3,2.5-4.6,3.8-7.3,2.8
				C379.4,132,378.3,129.1,379.6,126.6z"/>
			<path fill="#FF00FF" stroke="#231F20" stroke-width="2" d="M391.3,129.4l-6.9-7.9c0,0,13.8-16.7,27.5-16.7
				c13.8,0,27.5,16.7,27.5,16.7l-6.9,7.9c0,0-13.7-18.2-20.6-18.2C405,111.2,391.3,129.4,391.3,129.4z"/>
			<path fill="#2E3192" stroke="#000000" stroke-width="2" d="M422.2,164c0,0,10.3-8.6,10.3-25.9c0-25.9-20.5-43.2-20.5-43.2
				s-20.5,17.3-20.5,43.2c0,17.3,10.3,25.9,10.3,25.9H422.2z"/>
			<path fill="#FF00FF" stroke="#231F20" d="M432.5,138c0-25.9-20.5-43.2-20.5-43.2s-20.5,17.3-20.5,43.2"/>
			<line fill="none" stroke="#231F20" x1="391.5" y1="138" x2="432.5" y2="138"/>
			<path fill="#FDD4BC" stroke="#000000" stroke-width="2" d="M433.6,88.8c0.8,10.8-8.4,20.3-20.4,21.1c-12,0.8-22.4-7.3-23.2-18.1
				c-0.8-10.8,8.4-20.3,20.4-21.1C422.5,69.9,432.9,78,433.6,88.8z"/>
			<path d="M433.5,87.6c-6.7,0-14.4-4.7-21-4.7S399,80.7,399,80.7s-5.4,9.2-9,9.2c0,0,3.4-11.8,8.3-14.6c4.9-2.8,8.3-4.3,13.8-4.6
				s13,3.2,15.3,5.6c2.3,2.4,4.8,5.9,5.4,8C433.3,86.4,433.5,87.6,433.5,87.6z"/>
			<path fill="#231F20" d="M408.2,90.2c0,0.8-0.6,1.4-1.4,1.4c-0.8,0-1.4-0.6-1.4-1.4c0-0.8,0.6-1.4,1.4-1.4
				C407.6,88.8,408.2,89.4,408.2,90.2z"/>
			<path fill="#231F20" d="M419.6,90.2c0,0.8-0.6,1.4-1.4,1.4c-0.8,0-1.4-0.6-1.4-1.4c0-0.8,0.6-1.4,1.4-1.4
				C419,88.8,419.6,89.4,419.6,90.2z"/>
			<path fill="none" stroke="#231F20" stroke-width="2" d="M433.6,88.8c0.8,10.8-8.4,20.3-20.4,21.1c-12,0.8-22.4-7.3-23.2-18.1
				c-0.8-10.8,8.4-20.3,20.4-21.1C422.5,69.9,432.9,78,433.6,88.8z"/>
		</g>
	</g>
</g>
</svg>
