<?xml version="1.0" encoding="utf-8"?>
<!-- Generator: Adobe Illustrator 19.1.0, SVG Export Plug-In . SVG Version: 6.00 Build 0)  -->
<!DOCTYPE svg PUBLIC "-//W3C//DTD SVG 1.1//EN" "http://www.w3.org/Graphics/SVG/1.1/DTD/svg11.dtd">
<svg version="1.1" id="Layer_1" xmlns="http://www.w3.org/2000/svg" xmlns:xlink="http://www.w3.org/1999/xlink" x="0px" y="0px"
	 viewBox="0 0 1338.6 72" enable-background="new 0 0 1338.6 72" xml:space="preserve">
<polygon fill="#754C24" points="623.4,13 691.7,13 692.3,13 776.4,13 802.3,1 649.3,1 648.6,1 622.7,13 "/>
<polygon fill="#A67C52" points="819.9,24 845.8,13 776.8,13 776.4,13 692.3,13 691.7,13 665.8,24 666.4,24 720.7,24 721.3,24 "/>
<polygon fill="#754C24" points="358.3,24 413.2,24 512.3,24 512.4,24 538.3,13 538.2,13 469.3,13 468.9,13 384.2,13 "/>
<polygon fill="#603813" points="797.9,36 798.3,36 848.9,36 874.8,24 819.9,24 721.3,24 720.7,24 694.8,36 695.4,36 "/>
<polygon fill="#A67C52" points="413.2,24 387.3,36 490.4,36 490.8,36 541.3,36 541.4,36 567.3,24 567.2,24 512.4,24 512.3,24 "/>
<polygon fill="#754C24" points="772,48 797.9,36 695.4,36 694.8,36 644.9,36 644.2,36 618.3,48 619,48 687.3,48 688,48 "/>
<polygon fill="#8C6239" points="661.4,60 687.3,48 619,48 618.3,48 644.2,36 644.9,36 694.8,36 720.7,24 666.4,24 665.8,24 
	691.7,13 623.4,13 622.7,13 648.6,1 495.2,1 469.3,13 538.2,13 538.3,13 512.4,24 567.2,24 567.3,24 541.4,36 541.3,36 490.8,36 
	464.9,48 533.9,48 533.9,48 508,60 508,60 408.8,60 382.9,72 537,72 537,72 562.9,60 "/>
<polygon fill="#A67C52" points="379.8,48 353.9,60 408.8,60 508,60 508,60 533.9,48 533.9,48 464.9,48 464.5,48 "/>
<polygon fill="#754C24" points="662.1,60 661.4,60 562.9,60 537,72 690.4,72 716.3,60 "/>
<polygon fill="#603813" points="230.1,13 314.8,13 315.2,13 341.1,1 340.7,1 187,1 161.1,13 230.1,13 "/>
<polygon fill="#8C6239" points="186.7,1 32.6,1 6.7,13 76,13 160.8,13 "/>
<polygon fill="#754C24" points="204.2,24 230.1,13 230.1,13 161.1,13 160.8,13 76,13 50.1,24 105,24 204.2,24 "/>
<polygon fill="#A67C52" points="182.7,36 233.2,36 233.2,36 259.1,24 259.1,24 204.2,24 204.2,24 105,24 79.1,36 182.3,36 "/>
<polygon fill="#603813" points="182.7,36 156.8,48 225.7,48 225.8,48 310.4,48 310.9,48 336.8,36 336.3,36 233.2,36 233.2,36 "/>
<polygon fill="#8C6239" points="182.3,36 79.1,36 28.2,36 2.3,48 71.7,48 156.4,48 "/>
<polygon fill="#8C6239" points="353.9,60 379.8,48 464.5,48 490.4,36 387.3,36 413.2,24 358.3,24 384.2,13 468.9,13 494.8,1 
	341.1,1 315.2,13 314.8,13 230.1,13 204.2,24 259.1,24 259.1,24 233.2,36 336.3,36 336.8,36 310.9,48 310.4,48 225.8,48 199.9,60 
	199.8,60 100.7,60 74.8,72 228.8,72 228.9,72 254.8,60 "/>
<polygon fill="#A67C52" points="199.9,60 225.8,48 225.7,48 156.8,48 156.4,48 71.7,48 45.8,60 100.7,60 199.8,60 "/>
<polygon fill="#754C24" points="353.9,60 254.8,60 228.9,72 382.9,72 408.8,60 "/>
<polygon fill="#8C6239" points="999.9,13 974,24 1028.8,24 1028.9,24 1127.3,24 1153.2,13 1085,13 1084.3,13 1110.2,1 956.8,1 
	930.9,13 999.8,13 "/>
<polygon fill="#754C24" points="1085,13 1153.2,13 1153.9,13 1238.4,13 1264.3,1 1110.9,1 1110.2,1 1084.3,13 "/>
<polygon fill="#8C6239" points="776.8,13 845.8,13 930.5,13 956.4,1 802.7,1 802.3,1 776.4,13 "/>
<polygon fill="#A67C52" points="1153.2,13 1127.3,24 1128,24 1182.2,24 1182.9,24 1281.4,24 1307.3,13 1238.4,13 1153.9,13 "/>
<polygon fill="#754C24" points="819.9,24 874.8,24 973.9,24 974,24 999.9,13 999.8,13 930.9,13 930.5,13 845.8,13 "/>
<polygon fill="#603813" points="1156.4,36 1182.2,24 1128,24 1127.3,24 1028.9,24 1003,36 1105.8,36 1106.5,36 "/>
<polygon fill="#8C6239" points="1182.2,24 1156.4,36 1157,36 1259.9,36 1310.5,36 1336.3,24 1281.4,24 1182.9,24 "/>
<polygon fill="#A67C52" points="1028.8,24 974,24 973.9,24 874.8,24 848.9,36 952,36 952.4,36 1002.9,36 1003,36 1028.9,24 "/>
<polygon fill="#754C24" points="1156.4,36 1106.5,36 1105.8,36 1079.9,48 1080.6,48 1148.9,48 1149.5,48 1234,48 1259.9,36 1157,36 
	"/>
<polygon fill="#8C6239" points="797.9,36 772,48 772.4,48 841.4,48 926.1,48 952,36 848.9,36 798.3,36 "/>
<polygon fill="#8C6239" points="1123,60 1148.9,48 1080.6,48 1079.9,48 1105.8,36 1003,36 1002.9,36 952.4,36 926.5,48 995.4,48 
	995.5,48 969.6,60 969.6,60 870.4,60 815.5,60 717,60 716.3,60 690.4,72 691.1,72 844.5,72 998.6,72 998.6,72 1024.5,60 "/>
<polygon fill="#A67C52" points="1148.9,48 1123,60 1123.7,60 1177.9,60 1178.6,60 1277.1,60 1303,48 1234,48 1149.5,48 "/>
<polygon fill="#A67C52" points="841.4,48 772.4,48 772,48 688,48 687.3,48 661.4,60 662.1,60 716.3,60 717,60 815.5,60 870.4,60 
	969.6,60 969.6,60 995.5,48 995.4,48 926.5,48 926.1,48 "/>
<polygon fill="#754C24" points="1123.7,60 1123,60 1024.5,60 998.6,72 1152,72 1177.9,60 "/>
<polygon fill="#8C6239" points="1178.6,60 1177.9,60 1152,72 1152.7,72 1306.1,72 1332,60 1277.1,60 "/>
<path d="M1305.3,48h-68.9l23.7-11h50.5l28.1-13h-54.9l25.9-12h-68.9l25.9-12h-153.4h-3H958.7h-1.9H805h-2.7H651.6h-3H497.1h-1.9
	H343.4h-2.7H188.9H187H32.6L4.4,13h69.5l-26,12h55L79,36H28.2L0,49h69.5l-26,12h55l-26,11h154.1h2.4h151.7h2.4h151.7h2.4h151h3.1
	h151h2.4h151.7h2.4h151h3.1h153.4l28.1-12h-54.9L1305.3,48z M1300.7,49L1277,60h-96.1h-3h-51.9l23.7-11h84.5H1300.7z M1024.5,60
	h-52.6l23.7-11h82h3.1h66l-23.8,11h-96.1H1024.5z M870.4,60h-52.6l11.9-5.5l11.9-5.5h82.7h2h67l-14.4,6.7l-9.3,4.3h-96.8H870.4z
	 M716.3,60h-51.9l23.7-11h81.7h2.8h66.5l-23.7,11h-96.1H716.3z M562.9,60h-52.6L534,49h82h3.1h66l-23.8,11h-96.1H562.9z M408.8,60
	h-52.6l11.9-5.5l11.9-5.5h82.7h2h67l-14.2,6.6l-9.6,4.4h-96.8H408.8z M254.7,60h-52.6l23.7-11h82.3h2.8h66.5l-23.7,11h-96.8H254.7z
	 M182.8,37h48.1h2.4h100.8l-23.8,11H228h-2.3h-66.6L182.8,37z M230.2,13h82.3h2.8h66.5l-23.7,11h-96.8h-2.3h-52.6L230.2,13z M469,13
	h67l-14.2,6.6l-9.6,4.4h-96.8h-2.3h-52.6l11.9-5.5l11.9-5.5H467H469z M623.5,13h66l-23.8,11h-96.1h-2.3h-52.6l23.7-11h82H623.5z
	 M776.9,13h66.5l-23.7,11h-96.1h-3h-51.9l23.7-11h81.7H776.9z M930.6,13h67l-14.4,6.7l-9.3,4.3h-96.8h-2.3h-52.6l11.9-5.5l11.9-5.5
	h82.7H930.6z M1085.1,13h66l-23.8,11h-96.1h-2.3h-52.6l23.7-11h82H1085.1z M1156.3,36h-47.5h-3h-100.6l23.7-11h96.1h3.1h51.9
	L1156.3,36z M995.4,48h-66.6l23.7-11h48.1h2.4h100.5l-23.8,11h-82H995.4z M841.4,48h-66.6l23.7-11h48.1h2.4h100.7L926,48h-82.3
	H841.4z M687.3,48h-66L645,37h47.5h3.1h100.2l-23.8,11h-81.7H687.3z M533.9,48h-66.6l23.7-11h48.1h2.4H642l-23.8,11h-82H533.9z
	 M379.8,48h-66.6l23.7-11H385h2.4h100.7l-23.7,11h-82.3H379.8z M358.4,25h52.5l-23.7,11h-48.1h-2.7H235.5l23.7-11H356H358.4z
	 M512.5,25H565l-14.2,6.6l-9.6,4.4h-48.5h-1.9H389.6l11.9-5.5l11.9-5.5H510H512.5z M666.5,25h51.9l-23.8,11h-47.5h-3H543.7l23.7-11
	h96.1H666.5z M820,25h52.5l-23.7,11h-48.1h-2.7H697.7l23.7-11h96.1H820z M974.1,25h52.5l-14.4,6.7l-9.3,4.3h-48.5h-1.9H851.2
	l11.9-5.5l11.9-5.5h96.8H974.1z M1233.9,48h-82.1h-3h-66l23.7-11h47.5h3.1h100.5L1233.9,48z M1334.1,25l-23.7,11h-48.1h-102.9
	l23.7-11h98.5H1334.1z M1305,13l-23.7,11h-96.1h-3h-51.9l23.7-11h84.5H1305z M1262,1l-23.7,11h-82.1h-3h-66L1111,1H1262z M1108,1
	l-23.8,11h-82h-2.3h-66.6l23.7-11H1108z M954.1,1l-23.7,11H848h-2.3h-66.6l23.7-11H954.1z M800.1,1l-23.8,11h-81.7h-3h-66l23.7-11
	H800.1z M646.4,1l-23.8,11h-82h-2.3h-66.6l23.7-11H646.4z M492.5,1l-23.7,11h-82.3h-2.3h-66.6l23.7-11H492.5z M338.5,1l-23.8,11
	h-82.3h-2.3h-66.6l23.7-11H338.5z M9,12L32.7,1h151.7l-23.7,11H76H9z M52.4,24l23.7-11h82.7h2h67l-14.2,6.6l-9.5,4.4H105H52.4z
	 M105.1,25h96.8h2.4h52.5l-14.2,6.6l-9.5,4.4h-48.5h-1.9H81.4L105.1,25z M4.6,48l23.7-11h48.6H180l-23.7,11H71.7H4.6z M48.1,60
	l23.7-11h82.7h2h67l-14.2,6.6l-9.5,4.4h-99.1H48.1z M77.1,71l23.7-10h96.8h2.4h52.5l-14.2,6.1l-9.5,3.9H77.1z M231.2,71l23.7-10
	h96.7h2.4h52.5l-23.7,10H231.2z M385.2,71l11.9-5l11.9-5h96.8h2.4h52.5l-14.2,6.1l-9.6,3.9H385.2z M539.3,71L563,61h96.1h3.1h51.9
	l-23.8,10H539.3z M693.4,71l23.7-10h96.1h2.4h52.5l-23.7,10H693.4z M846.8,71l11.9-5l11.9-5h96.8h2.4h52.5l-14.4,6.2l-9.3,3.8H846.8
	z M1000.9,71l23.7-10h96.1h3.1h51.9l-23.8,10H1000.9z M1329.7,61L1306,71h-151l23.7-10h98.5H1329.7z"/>
</svg>
