<?xml version="1.0" encoding="utf-8"?>
<!-- Generator: Adobe Illustrator 19.1.0, SVG Export Plug-In . SVG Version: 6.00 Build 0)  -->
<!DOCTYPE svg PUBLIC "-//W3C//DTD SVG 1.1//EN" "http://www.w3.org/Graphics/SVG/1.1/DTD/svg11.dtd">
<svg version="1.1" id="Layer_1" xmlns="http://www.w3.org/2000/svg" xmlns:xlink="http://www.w3.org/1999/xlink" x="0px" y="0px"
	 viewBox="0 0 645.6 338.6" enable-background="new 0 0 645.6 338.6" xml:space="preserve">
<g>
	<path fill="#009245" d="M247.6,115.7c-1.7-0.2-3.4-0.4-5.1-0.4c0.3-1.3,0.6-2.6,0.8-4c3.3-23.5-13-45.2-36.5-48.5
		c-11.3-1.6-22.1,1.4-30.7,7.4c2.2-16.8-9.5-32.3-26.4-34.7c-16.9-2.4-32.6,9.4-35,26.3c-0.2,1.6-0.3,3.2-0.3,4.8
		c-2.7,1.9-5.1,4.2-7.2,6.7c-18.3,2.3-34.3,13.6-42.5,30c-3.3-1.3-6.8-2.2-10.4-2.8c-25.1-3.5-48.2,13.9-51.8,39
		c-3.5,25.1,13.9,48.2,39,51.8c4.2,0.6,8.4,0.6,12.4,0c6.5,17.7,22.3,31.3,42.2,34.1c17.5,2.5,34.3-4,45.7-15.9
		c3.7,1.5,7.6,2.6,11.7,3.2c3.1,0.4,6.2,0.6,9.2,0.4c7.5,8.8,18.2,15.1,30.5,16.8c24.1,3.4,46.6-11.3,53.7-33.7
		c17.8-2.2,32.6-16,35.3-34.6C285.3,139.4,269.8,118.8,247.6,115.7z"/>
	<path d="M200.2,232.4c-2.4,0-4.8-0.2-7.3-0.5c-12.1-1.7-23.1-7.6-31.1-16.8c-2.9,0.1-5.8-0.1-8.6-0.5c-3.7-0.5-7.4-1.5-10.9-2.8
		c-12.2,12.1-29.4,17.9-46.4,15.5c-19.5-2.8-35.9-15.7-43.3-33.9c-3.8,0.4-7.6,0.3-11.4-0.2c-12.6-1.8-23.8-8.4-31.5-18.6
		c-7.7-10.2-10.9-22.8-9.1-35.4c1.8-12.6,8.4-23.8,18.6-31.5c10.2-7.7,22.8-10.9,35.4-9.1c3.1,0.4,6.2,1.2,9.2,2.2
		c8.7-16,24.4-26.9,42.4-29.4c1.9-2.2,4-4.1,6.3-5.9c0-1.3,0.1-2.7,0.3-4c2.5-18,19.3-30.6,37.3-28c16.5,2.3,28.5,16.6,28.4,32.9
		c8.7-5,18.7-7,28.8-5.6c11.9,1.7,22.4,7.9,29.6,17.5c7.2,9.6,10.3,21.4,8.6,33.3c-0.1,0.6-0.2,1.2-0.3,1.8c1,0.1,2,0.2,2.9,0.3h0
		c23.3,3.3,39.5,24.9,36.2,48.2c-2.6,18.6-17.2,33.4-35.7,36.2C241.2,218.9,221.8,232.4,200.2,232.4z M163.6,211.1l0.6,0.7
		c7.5,8.8,17.9,14.5,29.3,16.1c22.9,3.2,44.5-10.4,51.5-32.4l0.4-1.2l1.3-0.2c17.3-2.1,31.1-15.7,33.5-32.9
		c3-21.1-11.8-40.7-32.8-43.6h0c-1.6-0.2-3.1-0.3-4.8-0.4l-2.5,0l0.6-2.4c0.3-1.3,0.6-2.6,0.7-3.8c1.5-10.8-1.2-21.6-7.8-30.3
		c-6.6-8.7-16.2-14.4-27-15.9c-10.3-1.5-20.8,1.1-29.3,7.1l-3.7,2.6l0.6-4.5c2.1-15.7-9-30.2-24.7-32.5
		c-15.8-2.2-30.5,8.8-32.7,24.6c-0.2,1.5-0.3,3-0.3,4.5l0,1l-0.8,0.6c-2.5,1.9-4.9,4-6.9,6.4l-0.5,0.6l-0.8,0.1
		c-17.6,2.2-32.9,13-41,28.9l-0.8,1.6l-1.7-0.7c-3.2-1.3-6.6-2.2-10-2.6c-11.6-1.6-23.1,1.3-32.5,8.4c-9.3,7-15.4,17.3-17,28.9
		c-1.6,11.6,1.3,23.1,8.4,32.5c7,9.3,17.3,15.4,28.9,17c3.9,0.6,7.9,0.6,11.9,0l1.6-0.2l0.6,1.5c6.5,17.6,22.1,30.2,40.6,32.8
		c16.2,2.3,32.6-3.4,43.9-15.3l0.9-1l1.3,0.5c3.6,1.5,7.4,2.5,11.2,3c2.9,0.4,5.9,0.5,8.9,0.4L163.6,211.1z"/>
</g>
<g>
	<path fill="#C7B299" d="M113.4,322.5c0,0,13.2-128.6,1.6-139c-11.6-10.4,20.3,5.3,20.3,5.3s44.9-27.7,49.3-23.3
		c4.3,4.3-15.8,40-15.8,40l-2.3,113.5L113.4,322.5z"/>
	<path d="M111.7,324.2l0.2-1.8c0-0.3,3.3-32.5,5.2-65.5c3.2-57.6-0.5-69.9-3-72.2c-2-1.8-3.8-3.7-2.7-5.3c0.7-1,2-3,23.9,7.8
		c2.7-1.6,12.4-7.5,22.4-12.9c21.6-11.7,26.2-11.6,28-9.8c1.7,1.7,2.3,5.8-6,23.3c-4,8.4-8.5,16.5-9.4,18.2l-2.3,114.5L111.7,324.2z
		 M115.5,182c0.2,0.2,0.3,0.3,0.5,0.5c1.9,1.7,7.8,7,4,74.6c-1.6,28.7-4.3,56.7-5,63.9l49.9-3.3l2.3-112.5l0.2-0.3
		c10.5-18.6,17.9-36.1,16.1-38.3c-2.8-1.4-24.1,9.2-47.4,23.6l-0.7,0.4l-0.7-0.4C127.6,186.8,119.5,183.2,115.5,182z"/>
</g>
<g>
	<path fill="#009245" d="M602.9,95.8c-2-0.3-4-0.4-5.9-0.4c0.4-1.5,0.7-3.1,0.9-4.7c3.9-27.4-15.2-52.7-42.6-56.5
		c-13.1-1.9-25.8,1.6-35.8,8.7c2.6-19.6-11.1-37.7-30.7-40.5c-19.7-2.8-38,11-40.8,30.7c-0.3,1.9-0.4,3.7-0.4,5.6
		c-3.1,2.3-6,4.9-8.4,7.9c-21.3,2.7-39.9,15.9-49.5,35c-3.8-1.5-7.9-2.6-12.2-3.2c-29.2-4.1-56.2,16.2-60.3,45.4
		c-4.1,29.2,16.2,56.2,45.4,60.3c4.9,0.7,9.8,0.7,14.5,0.1c7.6,20.6,26,36.5,49.2,39.8c20.5,2.9,40-4.6,53.2-18.5
		c4.3,1.7,8.9,3,13.7,3.7c3.6,0.5,7.2,0.7,10.8,0.5c8.8,10.3,21.2,17.6,35.6,19.6c28.1,4,54.3-13.2,62.6-39.3
		c20.8-2.5,38.1-18.7,41.1-40.4C646.8,123.4,628.8,99.5,602.9,95.8z"/>
	<path d="M547.6,231.6c-2.8,0-5.6-0.2-8.4-0.6c-14-2-26.9-8.9-36.2-19.5c-3.4,0.1-6.8-0.1-10.2-0.6c-4.4-0.6-8.7-1.7-12.9-3.3
		c-14.1,14.2-34.2,21-54,18.2c-22.7-3.2-41.8-18.3-50.3-39.6c-4.5,0.5-9,0.4-13.5-0.2c-14.7-2.1-27.6-9.7-36.5-21.5
		c-8.9-11.8-12.7-26.4-10.6-41.1c2.1-14.7,9.7-27.6,21.5-36.5c11.8-8.9,26.4-12.7,41.1-10.6c3.7,0.5,7.4,1.4,10.9,2.7
		c10.1-18.7,28.4-31.5,49.5-34.4c2.2-2.6,4.7-4.9,7.5-7c0-1.6,0.1-3.2,0.4-4.8C448.8,12,468.2-2.6,489,0.4
		c19.2,2.7,33.2,19.6,32.8,38.6c10.2-6,22-8.4,33.8-6.8c13.8,1.9,26,9.1,34.3,20.2c8.4,11.1,11.9,24.8,10,38.6
		c-0.1,0.8-0.3,1.6-0.4,2.5c1.3,0.1,2.5,0.2,3.8,0.4l0,0c27,3.8,45.8,28.8,42,55.8c-3.1,21.7-20.1,38.7-41.6,41.9
		C595.3,215.8,572.7,231.6,547.6,231.6z M504.7,207.4l0.6,0.7c8.8,10.3,21,17,34.4,18.9c26.8,3.8,52.2-12.2,60.4-37.9l0.4-1.2
		l1.3-0.2c20.3-2.5,36.5-18.4,39.4-38.7c3.5-24.8-13.8-47.8-38.6-51.3c-1.8-0.3-3.7-0.4-5.7-0.4l-2.5,0l0.6-2.4
		c0.4-1.5,0.7-3,0.9-4.5c1.8-12.7-1.5-25.4-9.2-35.6c-7.7-10.3-19-16.9-31.7-18.7c-12.1-1.7-24.4,1.2-34.4,8.3l-3.7,2.6l0.6-4.5
		c2.4-18.5-10.6-35.6-29-38.2c-18.6-2.6-35.9,10.4-38.5,29c-0.2,1.7-0.4,3.5-0.3,5.2l0,1l-0.8,0.6c-3,2.2-5.7,4.7-8.1,7.5l-0.5,0.6
		l-0.8,0.1c-20.7,2.6-38.6,15.3-48,33.9l-0.8,1.6l-1.7-0.7c-3.8-1.5-7.7-2.5-11.7-3.1C363.5,78.3,350,81.8,339,90
		c-11,8.3-18.1,20.3-20,33.9c-1.9,13.6,1.6,27.1,9.8,38.1c8.3,11,20.3,18.1,33.9,20c4.6,0.7,9.3,0.7,14,0.1l1.6-0.2l0.6,1.5
		c7.6,20.7,25.9,35.4,47.6,38.5c19,2.7,38.2-4,51.5-17.9l0.9-1l1.3,0.5c4.2,1.7,8.7,2.9,13.2,3.5c3.4,0.5,6.9,0.6,10.4,0.5
		L504.7,207.4z"/>
</g>
<g>
	<path fill="#C7B299" d="M446.4,337c0,0,15.4-149.9,1.9-162c-13.5-12.1,23.6,6.2,23.6,6.2s52.4-32.2,57.4-27.2
		c5,5-18.5,46.7-18.5,46.7L508.2,333L446.4,337z"/>
	<path d="M444.7,338.6l0.2-1.8c0-0.4,3.9-37.9,6-76.4c3.7-67.2-0.7-81.7-3.6-84.4c-2.2-2-4.3-4.1-3.1-5.8c0.7-1.1,2.2-3.3,27.7,9.2
		c2.9-1.8,14.4-8.7,26.2-15.1c28.4-15.4,31.1-12.7,32.4-11.5c1.8,1.8,2.7,6.5-7.1,26.9c-4.7,9.9-9.9,19.3-11,21.2l-2.7,133.3
		L444.7,338.6z M448,172.6c0.3,0.3,0.8,0.8,1.3,1.3c13.3,11.9,1,139.6-1.2,161.5l58.7-3.8l2.7-131.3l0.2-0.3
		c12.4-22,21-42.6,18.7-44.9c-2.6-1.7-24.6,8.3-55.6,27.4l-0.7,0.4l-0.7-0.4C462.5,178.2,452.3,173.7,448,172.6z"/>
</g>
<g>
	<path fill="#FF0000" d="M166.8,225.4c0,0,52.8,79.4,115.8,80.9c63,1.5,174.2-66.8,174.2-66.8s-88,23.6-167.3,23.6
		C238.1,263.1,166.8,225.4,166.8,225.4z"/>
	<path d="M284.7,308.3c-0.7,0-1.4,0-2.2,0c-18.3-0.4-47.6-8-82.9-41.5c-21-20-34.4-40-34.6-40.2l2.6-2.9
		c0.7,0.4,71.5,37.4,121.7,37.4c78.1,0,165.9-23.3,166.8-23.6l1.6,3.6c-0.3,0.2-28.3,17.3-63.7,34.1
		C347.8,297.2,311,308.3,284.7,308.3z M173.2,230.8c14.2,18.9,58.9,72.2,109.5,73.4c49.7,1.2,131-42.3,161.3-59.6
		c-27.8,6.5-93.9,20.4-154.4,20.4C247.9,265.1,192.8,240.3,173.2,230.8z"/>
</g>
</svg>
