<?xml version="1.0" encoding="utf-8"?>
<!-- Generator: Adobe Illustrator 19.1.0, SVG Export Plug-In . SVG Version: 6.00 Build 0)  -->
<!DOCTYPE svg PUBLIC "-//W3C//DTD SVG 1.1//EN" "http://www.w3.org/Graphics/SVG/1.1/DTD/svg11.dtd">
<svg version="1.1" id="Layer_1" xmlns="http://www.w3.org/2000/svg" xmlns:xlink="http://www.w3.org/1999/xlink" x="0px" y="0px"
	 viewBox="0 0 106.7 107.2" enable-background="new 0 0 106.7 107.2" xml:space="preserve">
<g>
	<path fill="#666666" d="M33.8,3l-16-1C13.5,1.7,9.6,4.2,8,8.2l-2.7,6.6C1,25.1,0.9,36.7,5.1,47l0.9,2.3
		c10.6,26.4,33.3,46,60.9,52.8l9.7,2.4c7.5,1.8,15.4-0.1,21.1-5.2l0,0c4.3-3.8,6.8-9.2,6.8-14.9l0.1-7.3l-25.5-5.4L74.1,81
		c-1.4,2.6-4.6,3.6-7.2,2.3l-9.5-4.4c-12.1-5.7-21.9-15.4-27.8-27.4L22,35.6c-1.1-2.3,0.4-5,2.9-5.3l15.2-2L33.8,3z"/>
	<path d="M82.2,107.2c-2,0-4.1-0.2-6.1-0.7l-9.7-2.4C38.3,97.2,15.1,77,4.2,50.1l-0.9-2.3C-1.1,36.9-1.1,24.9,3.4,14l2.7-6.6
		c2-4.7,6.7-7.7,11.8-7.4l17.5,1.1L42.5,30l-17.4,2.3c-0.6,0.1-1,0.4-1.3,0.9c-0.3,0.5-0.3,1.1,0,1.6l7.7,15.9
		c5.6,11.6,15.1,21,26.8,26.5l9.5,4.4c1.7,0.8,3.7,0.1,4.6-1.5l5.8-10.5l28.5,6l-0.1,8.9c-0.1,6.3-2.8,12.3-7.5,16.4
		C94.4,105,88.4,107.2,82.2,107.2z M17.2,4C14,4,11,5.9,9.8,8.9l-2.7,6.6C3,25.4,3,36.4,7,46.3l0.9,2.3c10.4,25.7,32.6,45,59.5,51.6
		l9.7,2.4c6.8,1.7,14.1-0.1,19.3-4.7c3.9-3.4,6.1-8.3,6.1-13.4l0.1-5.6l-22.4-4.7L75.9,82c-1.9,3.5-6.2,4.9-9.8,3.2l-9.5-4.4
		c-12.5-5.9-22.7-15.9-28.7-28.4l-7.7-15.9c-0.8-1.7-0.8-3.6,0.1-5.2c0.9-1.6,2.4-2.7,4.3-3l13-1.7L32.3,4.9L17.7,4
		C17.5,4,17.3,4,17.2,4z"/>
</g>
</svg>
