<?xml version="1.0" encoding="utf-8"?>
<!-- Generator: Adobe Illustrator 19.1.0, SVG Export Plug-In . SVG Version: 6.00 Build 0)  -->
<!DOCTYPE svg PUBLIC "-//W3C//DTD SVG 1.1//EN" "http://www.w3.org/Graphics/SVG/1.1/DTD/svg11.dtd">
<svg version="1.1" id="Layer_1" xmlns="http://www.w3.org/2000/svg" xmlns:xlink="http://www.w3.org/1999/xlink" x="0px" y="0px"
	 viewBox="0 0 48.6 54.3" enable-background="new 0 0 48.6 54.3" xml:space="preserve">
<g>
	<g>
		<path fill="#662D91" stroke="#000000" stroke-width="2" stroke-miterlimit="10" d="M1,49.7l4.4-5.3c1-1.2,1.8-2.1,2.9-3.2v-0.1
			H1.6v-4.9h14.4v3.7l-4.1,5c-1,1.2-2,2.3-3.1,3.3v0.1h7.5v5H1V49.7z"/>
	</g>
	<g>
		<path fill="#662D91" stroke="#000000" stroke-width="2" stroke-miterlimit="10" d="M1.9,15.1l4.6-5.5c1.1-1.3,1.9-2.2,3-3.3V6.1
			h-7V1h15v3.9l-4.3,5.2c-1,1.2-2.1,2.4-3.2,3.5v0.1h7.8v5.2H1.9V15.1z"/>
	</g>
	<g>
		<path fill="#662D91" stroke="#000000" stroke-width="2" stroke-miterlimit="10" d="M20.9,33.6l7.7-9.3c1.8-2.1,3.2-3.7,5.1-5.5
			v-0.2H21.9V9.9h25.2v6.5l-7.2,8.8c-1.8,2.1-3.5,4.1-5.4,5.9v0.1h13.1v8.7H20.9V33.6z"/>
	</g>
</g>
</svg>
