<?xml version="1.0" encoding="utf-8"?>
<!-- Generator: Adobe Illustrator 19.1.0, SVG Export Plug-In . SVG Version: 6.00 Build 0)  -->
<!DOCTYPE svg PUBLIC "-//W3C//DTD SVG 1.1//EN" "http://www.w3.org/Graphics/SVG/1.1/DTD/svg11.dtd">
<svg version="1.1" id="Layer_1" xmlns="http://www.w3.org/2000/svg" xmlns:xlink="http://www.w3.org/1999/xlink" x="0px" y="0px"
	 viewBox="0 0 189.5 180.4" enable-background="new 0 0 189.5 180.4" xml:space="preserve">
<path fill="#FCEE21" d="M94.8,18.1c21.6,0,28.7-16.1,28.7-16.1s-1.6,19.7,13.7,29.8c15.3,10.1,32.6,3.8,32.6,3.8s-12,15.9-6.4,32.2
	c5.6,16.3,24.1,22.3,24.1,22.3s-17.4,7.3-24.1,22.3c-6.8,15,6.4,32.2,6.4,32.2s-17-7.1-32.6,3.8c-15.6,10.9-13.7,29.9-13.7,29.9
	s-8.6-16.1-28.7-16.1s-28.7,16.1-28.7,16.1s4.2-18.1-13.7-29.9c-17.9-11.8-32.6-3.8-32.6-3.8s11-15.3,6.4-32.2
	C21.6,95.6,2,90.2,2,90.2s17.4-4.1,24.1-22.3c6.8-18.2-6.4-32.2-6.4-32.2s17.6,5.1,32.6-3.8C67.4,22.9,66.1,2,66.1,2
	S73.1,18.1,94.8,18.1z"/>
<path fill="#231F20" d="M123.4,180.4c-0.7,0-1.4-0.4-1.8-1.1c-0.3-0.6-8.3-15-26.9-15c-18.6,0-26.6,14.4-26.9,15
	c-0.5,0.9-1.5,1.3-2.5,0.9c-0.9-0.4-1.5-1.3-1.2-2.3c0.2-0.7,3.6-16.9-12.9-27.7c-16.7-11-30.5-3.8-30.6-3.8
	c-0.8,0.4-1.8,0.3-2.5-0.4c-0.6-0.7-0.7-1.7-0.1-2.5c0.1-0.1,10.4-14.8,6.1-30.5C20,97.4,1.7,92.2,1.5,92.1c-0.9-0.2-1.5-1.1-1.5-2
	c0-0.9,0.7-1.7,1.5-1.9c0.2,0,16.4-4.1,22.7-21c6.2-16.8-5.5-29.6-6-30.2c-0.6-0.7-0.7-1.6-0.2-2.4c0.5-0.8,1.4-1.1,2.3-0.9
	c0.2,0,16.9,4.7,31.1-3.6c13.8-8.2,12.8-27.8,12.8-28c-0.1-1,0.6-1.8,1.5-2.1c0.9-0.2,1.9,0.3,2.3,1.1c0.3,0.6,6.8,14.9,26.8,14.9
	c20.1,0,26.8-14.7,26.8-14.9c0.4-0.9,1.4-1.4,2.3-1.1c0.9,0.2,1.6,1.1,1.5,2.1c0,0.2-1.3,18.7,12.8,28c14.3,9.5,30.7,3.7,30.9,3.6
	c0.8-0.3,1.8,0,2.3,0.7c0.5,0.7,0.5,1.7,0,2.4c-0.1,0.1-11.3,15.3-6.1,30.4c5.2,15.2,22.7,21,22.9,21c0.8,0.3,1.3,1,1.4,1.8
	c0,0.8-0.5,1.6-1.2,1.9c-0.2,0.1-16.7,7.2-23.1,21.3c-6.2,13.8,6.1,30,6.2,30.2c0.6,0.7,0.6,1.7,0,2.4c-0.6,0.7-1.5,1-2.4,0.6
	c-0.2-0.1-16.3-6.5-30.7,3.6c-14.5,10.1-12.9,27.8-12.9,28c0.1,1-0.5,1.8-1.4,2.1C123.8,180.4,123.6,180.4,123.4,180.4z M94.8,160.3
	c13.8,0,22.4,7,26.8,12.1c0.7-6.9,3.6-17.9,14.5-25.5c11.1-7.7,22.7-7,29.2-5.6c-3.7-6.4-8.7-18.4-3.7-29.7
	c5-11.1,15.4-18.1,21.1-21.3c-6.1-2.9-17-9.5-21.2-21.8c-4.1-12,0.6-23.6,4-29.7c-6.5,1.2-18.4,1.9-29.4-5.4
	c-10.6-7-13.6-18.1-14.4-25.2c-4.2,5.1-12.5,11.7-26.9,11.7c-14.4,0-22.7-6.7-26.9-11.7C67,15.6,64,27.2,53.4,33.6
	c-10.7,6.3-22.4,6-28.9,5.1c3.7,5.8,8.5,16.8,3.6,30C23.3,81.3,13.7,87.5,7.8,90.2c6.5,2.9,17,9.4,20.3,21.7c3.2,12-0.8,23-3.9,29
	c6.2-1.5,17-2.2,29.3,5.9c11.8,7.7,14.5,18.2,14.9,25C72.9,166.9,81.4,160.3,94.8,160.3z"/>
<circle fill="#FBB03B" cx="94.8" cy="90.2" r="61.8"/>
<path fill="#231F20" d="M94.8,154c-35.2,0-63.8-28.6-63.8-63.8c0-35.2,28.6-63.8,63.8-63.8c35.2,0,63.8,28.6,63.8,63.8
	C158.6,125.4,130,154,94.8,154z M94.8,30.4c-33,0-59.8,26.8-59.8,59.8c0,33,26.8,59.8,59.8,59.8c33,0,59.8-26.8,59.8-59.8
	C154.6,57.2,127.7,30.4,94.8,30.4z"/>
</svg>
