<?xml version="1.0" encoding="utf-8"?>
<!-- Generator: Adobe Illustrator 19.1.0, SVG Export Plug-In . SVG Version: 6.00 Build 0)  -->
<!DOCTYPE svg PUBLIC "-//W3C//DTD SVG 1.1//EN" "http://www.w3.org/Graphics/SVG/1.1/DTD/svg11.dtd">
<svg version="1.1" id="Layer_1" xmlns="http://www.w3.org/2000/svg" xmlns:xlink="http://www.w3.org/1999/xlink" x="0px" y="0px"
	 viewBox="0 0 189.9 187.8" enable-background="new 0 0 189.9 187.8" xml:space="preserve">
<polygon fill="#B3B3B3" points="41.8,62.8 46.6,56.4 185.3,159.6 171.1,159.6 41.8,62.8 "/>
<path d="M189.9,161.1h-19.3L39.7,63.1l6.6-8.8L189.9,161.1z M171.6,158.1h9.2L46.9,58.5l-3,4L171.6,158.1z"/>
<g>
	<path fill="#FEFFDF" d="M4.5,126c-0.6,6.1-0.6,11.6-0.3,16.6c0.2,4,0.7,7.7,1.3,11.2c4.5-37.9,38.7-94.2,38.7-94.2
		S14.5,103.3,4.5,126z"/>
	<path fill="#FEFFDF" d="M44.2,59.6c0,0,86.9-33.6,120-18.5c0.1-1.1,0.1-2.2,0.1-3.3c0.1-8.6-1.2-15.5-2.8-20.6
		C133.7,5.3,44.2,59.6,44.2,59.6z"/>
	<path fill="#FEFFDF" d="M38.9,51.6c-0.5,0.6-1,1.2-1.5,1.8c-2.1,2.5-4,4.9-5.9,7.3l12.7-1L38.9,51.6z"/>
	<path fill="#FEFFDF" d="M132.9,114.1c8.3-11.1,16.4-23.8,22.3-37.5c-28.3-13.9-111-17-111-17S111,96.4,132.9,114.1z"/>
	<path fill="#FEFFDF" d="M44.2,59.6c0,0-40.1,98.9-22.7,123.3c5.1,1,12.5,1.5,21.9-0.3c0.8-0.2,1.6-0.3,2.4-0.5
		C24.4,153,44.2,59.6,44.2,59.6z"/>
	<path fill="#FEFFDF" d="M44.2,59.6c0,0,16.4,82.3,34.8,107.4c9.6-6.3,18.5-13.9,26.5-21.7C81.5,123.6,44.2,59.6,44.2,59.6z"/>
	<path fill="#FEFFDF" d="M37,64.7L21.2,75.9c-2.9,4.9-5.3,9.8-7.4,14.5C22.4,80.1,31,70.4,37,64.7z"/>
	<path fill="#FEFFDF" d="M141.2,4.4c-6.1-0.5-13.6-0.6-22.1,0.6c-3.3,0.4-6.9,1.1-10.7,2c-19,9.9-64.2,52.7-64.2,52.7
		S104.5,8.2,141.2,4.4z"/>
	<path fill="#FEFFDF" d="M44.4,58.2l2.8-15.6c-1.4,1.4-2.9,2.9-4.3,4.4l1.3,12.6C44.1,59.3,44.2,58.8,44.4,58.2z"/>
	<path fill="#FEFFDF" d="M71.1,23.1c-5.4,3.5-10.8,7.6-16.3,12.4l-7.9,18C51.4,46.4,60.9,34.8,71.1,23.1z"/>
	<path fill="#C1272D" d="M105.5,145.3c6.4-6.2,12.1-12.5,17.2-18.4c3.3-3.9,6.8-8.2,10.3-12.8c-22-17.7-88.8-54.5-88.8-54.5
		S81.5,123.6,105.5,145.3z"/>
	<path fill="#C1272D" d="M45.8,182c11.6-2.7,22.8-8.1,33.2-15C60.6,141.9,44.2,59.6,44.2,59.6S24.4,153,45.8,182z"/>
	<path fill="#C1272D" d="M44.2,59.6c0,0-34.2,56.3-38.7,94.2c2.5,14.7,7.3,24.6,8.6,26.9c1,0.5,3.5,1.5,7.4,2.2
		C4.1,158.6,44.2,59.6,44.2,59.6z"/>
	<path fill="#C1272D" d="M37,64.7c-6,5.7-14.6,15.4-23.2,25.7c-5.6,13-8.3,25-9.3,35.6c10-22.8,39.7-66.4,39.7-66.4L37,64.7z"/>
	<path fill="#C1272D" d="M44.2,59.6c0,0,82.7,3,111,17c4.9-11.4,8.3-23.4,9-35.5C131.1,26,44.2,59.6,44.2,59.6z"/>
	<path fill="#C1272D" d="M141.2,4.4c-36.7,3.8-97,55.3-97,55.3s89.5-54.3,117.3-42.4c-1.7-5.4-3.6-8.8-4.4-10.1
		C155.2,6.6,149.6,5.1,141.2,4.4z"/>
	<path fill="#C1272D" d="M44.2,59.6c0,0,45.3-42.9,64.2-52.7c-11,2.6-23.8,7.5-37.3,16.2C60.9,34.8,51.4,46.4,46.9,53.5L44.2,59.6z"
		/>
	<path fill="#C1272D" d="M44.2,59.6l0.3-1.4C44.2,58.8,44.1,59.3,44.2,59.6z"/>
	<path fill="#C1272D" d="M44.2,59.6l-12.7,1c-3.9,5.2-7.3,10.3-10.3,15.3L37,64.7C40.3,61.6,42.8,59.7,44.2,59.6z"/>
	<path fill="#C1272D" d="M44.2,59.6c-1.4,0.1-3.9,2-7.2,5.1L44.2,59.6z"/>
	<path fill="#C1272D" d="M42.9,47.1c-1.3,1.4-2.7,2.9-4,4.5l5.3,8.1L42.9,47.1z"/>
	<path fill="#C1272D" d="M46.9,53.5l7.9-18c-2.5,2.2-5.1,4.6-7.6,7.1l-2.8,15.6C44.8,57,45.7,55.4,46.9,53.5z"/>
	<path fill="#C1272D" d="M44.4,58.2l-0.3,1.4l2.7-6.1C45.7,55.4,44.8,57,44.4,58.2z"/>
</g>
<path d="M166.5,20.7c-0.7-3.3-1.6-6.1-2.5-8.4c-2-5-3.9-7.7-4.1-8l-0.4-0.5L159,3.6c-0.7-0.2-16.7-5.7-40.2-2.6
	c-1,0.1-2.1,0.3-3.1,0.5C105.4,3,93,6.5,79.6,13.6c-6.9,3.6-14,8.1-21.2,13.8c-3.3,2.6-6.7,5.5-10,8.6c-2,1.9-4,3.8-6,5.9
	c-1.9,2-3.9,4.1-5.8,6.2c-0.8,0.9-1.5,1.7-2.3,2.6c-3,3.5-5.7,6.9-8.2,10.4c-2.9,3.9-5.4,7.8-7.7,11.7c-5.7,9.5-9.7,18.6-12.5,27.3
	c0,0,0,0,0,0C1.3,114-0.1,126.7,0,137.2c0.8-1.2,1-2.8,2-4.8c-1,2-1.3,3.5-2,4.8c0,2,0.1,4,0.2,5.9c1.5,24.1,10.3,39.5,10.7,40.1
	l0.3,0.5l0.5,0.3c0.2,0.1,2.1,1.1,5.5,2c-1.4-1.2-3-2.4-4.5-3.8C7.2,177.6,5,170.3,5,161.5c-0.1-0.3-0.1-0.7-0.2-1
	c0.1,0.3,0.1,0.7,0.2,1c0,8.8,2.2,16.2,7.6,20.8c1.6,1.4,3.1,2.6,4.5,3.8c2.3,0.7,5.4,1.3,9.2,1.6c1.5,0.1,3.1,0.2,4.7,0.2
	c3.7,0,8-0.3,12.7-1.2c1.7-0.3,3.3-0.7,4.9-1.1c11.4-2.9,22.4-8.4,32.7-15.2c9.9-6.5,19-14.3,27.2-22.3c6.3-6.2,12.1-12.5,17.1-18.4
	c3.7-4.4,7.1-8.6,10.2-12.8c10.6-14,17.8-26.9,22.8-38.3c6-13.9,8.5-25.7,9.3-35.2c0.2-2,0.2-4,0.3-5.8
	C168.3,30.9,167.6,25.3,166.5,20.7z M2,132.4c0-11,2.4-23.4,7.4-36.7c0,0,0,0,0,0C4.5,109,2.4,121.4,2,132.4c0,0.1,0,0.2,0,0.4
	C2.1,132.7,2,132.6,2,132.4z M5.5,153.8c-0.6-3.5-1-7.2-1.3-11.2c-0.3-5-0.3-10.5,0.3-16.6c1-10.6,3.7-22.6,9.3-35.6
	c2.1-4.7,4.5-9.6,7.4-14.5c2.9-5,6.3-10.1,10.3-15.3c1.9-2.4,3.8-4.9,5.9-7.3c0.5-0.6,1-1.2,1.5-1.8c1.3-1.5,2.7-3,4-4.5
	c1.4-1.5,2.9-3,4.3-4.4c2.5-2.5,5.1-4.9,7.6-7.1c5.5-4.8,11-8.9,16.3-12.4c13.5-8.7,26.3-13.6,37.3-16.2c3.8-0.9,7.4-1.5,10.7-2
	c8.5-1.1,16-1.1,22.1-0.6c8.3,0.7,14,2.2,15.8,2.8c0.8,1.2,2.7,4.6,4.4,10.1c1.6,5.1,2.9,12,2.8,20.6c0,1.1-0.1,2.2-0.1,3.3
	c-0.7,12.1-4.1,24.1-9,35.5c-5.9,13.7-14,26.5-22.3,37.5c-3.4,4.6-6.9,8.9-10.3,12.8c-5,5.9-10.8,12.2-17.2,18.4
	c-8,7.8-16.9,15.3-26.5,21.7c-10.4,6.9-21.6,12.4-33.2,15c-0.8,0.2-1.6,0.4-2.4,0.5c-9.4,1.8-16.8,1.3-21.9,0.3
	c-3.9-0.7-6.4-1.7-7.4-2.2C12.8,178.4,8,168.5,5.5,153.8z"/>
</svg>
