<?xml version="1.0" encoding="utf-8"?>
<!-- Generator: Adobe Illustrator 19.1.0, SVG Export Plug-In . SVG Version: 6.00 Build 0)  -->
<!DOCTYPE svg PUBLIC "-//W3C//DTD SVG 1.1//EN" "http://www.w3.org/Graphics/SVG/1.1/DTD/svg11.dtd">
<svg version="1.1" id="Layer_1" xmlns="http://www.w3.org/2000/svg" xmlns:xlink="http://www.w3.org/1999/xlink" x="0px" y="0px"
	 viewBox="0 0 94.9 278.8" enable-background="new 0 0 94.9 278.8" xml:space="preserve">
<path fill="#FFFFFF" d="M92.9,143.2c0,55.7-10.4,103.9-25.5,126.8c-6,9.1-33.8,9.1-39.8,0C12.4,247.1,2,198.9,2,143.2
	C2,26.9,47.4,2.3,47.4,2.3S92.9,26.9,92.9,143.2z"/>
<path fill="#0071BC" d="M47.4,2.3c0,0-4.3,2.4-10.3,9v264.3c6.3,1.6,14.3,1.6,20.6,0V11.3C51.8,4.6,47.4,2.3,47.4,2.3z"/>
<path d="M47.5,278.8C47.5,278.8,47.5,278.8,47.5,278.8c-8,0-17.8-2-21.6-7.7C9.9,246.9,0,198,0,143.2c0-33.4,4-80.5,23-115.1
	C34.5,7.2,46,0.8,46.5,0.5l1-0.5l1,0.5c0.5,0.3,12,6.7,23.5,27.7c10.5,19.1,23,54.6,23,115.1C94.9,198,85,247,69,271.1
	C65.3,276.8,55.4,278.8,47.5,278.8z M47.4,4.6c-2.9,2-12.1,9.1-21.2,25.9C16.1,49.2,4,83.9,4,143.2c0,26.8,2.4,52.8,7.1,75.3
	c4.5,21.7,10.7,39.2,18.2,50.4c2.3,3.5,9.7,5.9,18.2,5.9c0,0,0,0,0,0c8.6,0,15.9-2.4,18.2-5.9c7.4-11.2,13.7-28.6,18.2-50.4
	c4.6-22.5,7.1-48.5,7.1-75.3C90.9,38.8,53.9,9,47.4,4.6z"/>
</svg>
