<?xml version="1.0" encoding="utf-8"?>
<!-- Generator: Adobe Illustrator 19.1.0, SVG Export Plug-In . SVG Version: 6.00 Build 0)  -->
<!DOCTYPE svg PUBLIC "-//W3C//DTD SVG 1.1//EN" "http://www.w3.org/Graphics/SVG/1.1/DTD/svg11.dtd">
<svg version="1.1" id="Layer_1" xmlns="http://www.w3.org/2000/svg" xmlns:xlink="http://www.w3.org/1999/xlink" x="0px" y="0px"
	 viewBox="0 0 314.5 197.9" enable-background="new 0 0 314.5 197.9" xml:space="preserve">
<rect x="1" y="76.5" fill="#603813" width="312.5" height="12.9"/>
<path d="M314.5,90.4H0V75.5h314.5V90.4z M2,88.4h310.5V77.5H2V88.4z"/>
<rect x="27.1" y="90.1" fill="#603813" width="260.2" height="32.9"/>
<path d="M288.4,124H26.1V89.1h262.2V124z M28.1,122h258.2V91.1H28.1V122z"/>
<rect x="7.6" y="90.1" fill="#603813" width="19" height="106.8"/>
<path d="M27.6,197.9h-21V89.1h21V197.9z M8.6,195.9h17V91.1h-17V195.9z"/>
<rect x="287.4" y="90.1" fill="#603813" width="19" height="106.8"/>
<path d="M307.4,197.9h-21V89.1h21V197.9z M288.4,195.9h17V91.1h-17V195.9z"/>
<path fill="#803813" d="M201,52.3c0,23.9-21.2,22.2-47.4,22.2s-47.4,1.7-47.4-22.2S127.3,9,153.5,9S201,28.4,201,52.3z"/>
<path d="M163,75.6c-1.5,0-3,0-4.6,0c-3.2,0-6.5,0-9.7,0c-16.4,0.1-30.6,0.1-38.1-7.3c-3.7-3.7-5.5-8.9-5.5-15.9
	c0-24.4,21.7-44.3,48.4-44.3C180.2,8,202,27.9,202,52.3c0,7.1-1.8,12.3-5.5,15.9C189.7,75,177.4,75.6,163,75.6z M153.5,73.5
	c1.6,0,3.3,0,4.9,0c16,0.1,29.8,0.1,36.7-6.7c3.3-3.3,4.9-8,4.9-14.5C200,29,179.1,10,153.5,10s-46.4,19-46.4,42.3
	c0,6.5,1.6,11.2,4.9,14.5c6.9,6.8,20.7,6.8,36.7,6.7C150.3,73.5,151.9,73.5,153.5,73.5z"/>
<path fill="#BDCCD4" d="M190.7,75.5h-75.7c-7.3,0-14.1-3.8-18-10l-6.2-13.6h124l-6.2,13.6C204.9,71.7,198.1,75.5,190.7,75.5z"/>
<path d="M190.7,76.5h-75.7c-7.7,0-14.8-3.9-18.8-10.4l-0.1-0.1l-6.8-15h127.1L209.6,66C205.5,72.6,198.5,76.5,190.7,76.5z M98,65
	c3.7,5.9,10.1,9.5,17.1,9.5h75.7c7,0,13.4-3.5,17.1-9.5l5.5-12.1H92.5L98,65z"/>
<path fill="#803813" d="M143.7,18.1c-9.4-5.5-19.7-6.2-25-2.1l-11.3-6.6c1.2-2.1,0.5-4.7-1.6-5.9c-2.1-1.2-4.7-0.5-5.9,1.6
	c-0.7,1.3-0.8,2.8-0.2,4c-1.4,0.1-2.7,0.9-3.4,2.1c-1.2,2.1-0.5,4.7,1.6,5.9c2.1,1.2,4.7,0.5,5.9-1.6l11.3,6.6
	c-0.9,6.7,4.6,15.3,14.1,20.8c11.2,6.5,23.5,6.3,27.5-0.6C160.7,35.5,154.9,24.6,143.7,18.1z"/>
<path d="M145,48.7c-5,0-10.9-1.6-16.4-4.8c-9.3-5.4-15.2-14-14.6-21.1l-10-5.9c-0.7,0.8-1.6,1.4-2.7,1.7c-1.4,0.4-2.8,0.2-4-0.6
	c-1.2-0.7-2.1-1.9-2.5-3.3c-0.4-1.4-0.2-2.8,0.6-4c0.7-1.1,1.7-2,3-2.4C98.1,7,98.3,5.6,99,4.5c1.5-2.5,4.8-3.4,7.3-1.9
	c1.2,0.7,2.1,1.9,2.5,3.3C109,6.9,109,8,108.6,9l10,5.9c5.9-4,16.3-3,25.6,2.4l0,0c5.6,3.3,10,7.7,12.5,12.4
	c2.6,4.9,2.9,9.6,0.7,13.2C155.2,46.7,150.6,48.7,145,48.7z M103.4,14.1l12.8,7.5l-0.1,0.7c-0.9,6.5,4.7,14.6,13.6,19.8
	c10.7,6.2,22.4,6.1,26.1-0.2c1.8-3,1.5-7-0.8-11.3c-2.4-4.4-6.5-8.5-11.8-11.6c-8.9-5.2-18.7-6.1-23.9-2.2l-0.5,0.4L106,9.7l0.5-0.9
	c0.9-1.6,0.4-3.6-1.2-4.6c-1.6-0.9-3.6-0.4-4.6,1.2c-0.6,0.9-0.6,2.1-0.1,3.1l0.6,1.3L99.7,10c-1.1,0.1-2.1,0.7-2.6,1.6
	c-0.5,0.8-0.6,1.7-0.4,2.5c0.2,0.9,0.8,1.6,1.5,2c0.8,0.5,1.7,0.6,2.5,0.3c0.9-0.2,1.6-0.8,2-1.5L103.4,14.1z"/>
<circle cx="179.4" cy="32.3" r="1.8"/>
<circle cx="187.7" cy="36.5" r="1.8"/>
<circle cx="180.2" cy="41.8" r="1.8"/>
</svg>
