<?xml version="1.0" encoding="utf-8"?>
<!-- Generator: Adobe Illustrator 19.1.0, SVG Export Plug-In . SVG Version: 6.00 Build 0)  -->
<!DOCTYPE svg PUBLIC "-//W3C//DTD SVG 1.1//EN" "http://www.w3.org/Graphics/SVG/1.1/DTD/svg11.dtd">
<svg version="1.1" id="Layer_1" xmlns="http://www.w3.org/2000/svg" xmlns:xlink="http://www.w3.org/1999/xlink" x="0px" y="0px"
	 viewBox="0 0 480 295.6" enable-background="new 0 0 480 295.6" xml:space="preserve">
<filter  id="AI_GaussianBlur_4">
	<feGaussianBlur  stdDeviation="4"></feGaussianBlur>
</filter>
<g>
	<g>
		<rect x="104.1" y="158.7" fill="#754C24" width="276.9" height="19.4"/>
		<path d="M382.5,179.7H102.6v-22.4h279.9V179.7z M105.6,176.7h273.9v-16.4H105.6V176.7z"/>
	</g>
	<g>
		<rect x="122.4" y="180.2" fill="#754C24" width="240.3" height="112"/>
		<path d="M364.2,293.6H120.9v-115h243.3V293.6z M123.9,290.6h237.3v-109H123.9V290.6z"/>
	</g>
</g>
<g>
	<g filter="url(#AI_GaussianBlur_4)">
		<rect x="129.1" y="29.6" fill="#00FFFF" width="224.8" height="110.2"/>
	</g>
	<g>
		<rect x="129.1" y="29.6" fill="#333333" width="224.8" height="110.2"/>
		<path d="M355.4,141.3H127.6V28.1h227.8V141.3z M130.6,138.3h221.8V31.1H130.6V138.3z"/>
	</g>
	<g>
		<rect x="204.9" y="139.8" fill="#333333" width="74.3" height="18.9"/>
		<path d="M280.7,160.2h-77.3v-21.9h77.3V160.2z M206.4,157.2h71.3v-15.9h-71.3V157.2z"/>
	</g>
	<g>
		<rect x="176.9" y="149.3" fill="#333333" width="130.2" height="9.5"/>
		<path d="M308.7,160.2H175.4v-12.5h133.2V160.2z M178.4,157.2h127.2v-6.5H178.4V157.2z"/>
	</g>
</g>
</svg>
